<svg width="63" height="59" viewBox="0 0 63 59" fill="none" xmlns="http://www.w3.org/2000/svg">
<path d="M56.5819 20.7532C56.5819 19.918 56.3903 19.1805 56.0051 18.5469C55.6271 17.9243 55.0614 17.4025 54.3014 16.9901C48.029 13.5982 41.7533 10.2168 35.4828 6.82184C33.7923 5.90672 32.1537 5.94053 30.4763 6.86855C27.9806 8.24952 15.4816 14.9651 11.7568 16.9877C10.2238 17.8204 9.4776 19.0951 9.4776 20.7514C9.47498 27.5726 9.4776 34.3927 9.47498 41.2145C9.47498 42.0301 9.65741 42.7528 10.0256 43.3766C10.4042 44.0183 10.9784 44.556 11.7554 44.9776C15.4803 47.0002 27.9786 53.7146 30.4756 55.0961C32.1543 56.026 33.793 56.0586 35.4835 55.1428C41.7539 51.7473 48.0316 48.3658 54.3041 44.9758C55.0824 44.5542 55.6553 44.0164 56.0353 43.3754C56.4021 42.7528 56.5845 42.0282 56.5845 41.2108C56.5845 41.2108 56.5845 27.5745 56.5826 20.7532" fill="#5C8DBC"/>
<path d="M33.1013 30.916L10.0262 43.3767C10.4042 44.0183 10.9785 44.5561 11.7555 44.9777C15.4803 47.0003 27.9786 53.7146 30.4757 55.0956C32.1543 56.026 33.793 56.0586 35.4835 55.1423C41.754 51.7473 48.0317 48.3659 54.3041 44.9758C55.0824 44.5542 55.6553 44.0165 56.0353 43.3749L33.102 30.916" fill="#1A4674"/>
<path d="M26.2664 34.6072C27.6097 36.8062 30.1336 38.2892 33.029 38.2892C35.9434 38.2892 38.4811 36.7871 39.8179 34.5654L33.1012 30.916L26.2664 34.6072Z" fill="#1A4674"/>
<path d="M56.5818 20.7532C56.5818 19.918 56.3902 19.1805 56.005 18.5469L33.1012 30.916L56.0345 43.3748C56.4014 42.7529 56.5838 42.0283 56.5838 41.2109C56.5838 41.2109 56.5838 27.5745 56.5818 20.7532Z" fill="#1B598E"/>
<path d="M55.3212 31.8066H53.5297V33.4869H51.7361V31.8066H49.9446V30.1263H51.7361V28.446H53.5297V30.1263H55.3212V31.8066Z" fill="white"/>
<path d="M48.7811 31.8066H46.9895V33.4869H45.1979V31.8066H43.4064V30.1263H45.1979V28.446H46.9895V30.1263H48.7811V31.8066Z" fill="white"/>
<path d="M39.818 34.5654C38.4812 36.7871 35.9435 38.2892 33.0291 38.2892C30.1337 38.2892 27.6098 36.8062 26.2664 34.6072C25.6141 33.5384 25.2394 32.3025 25.2394 30.9818C25.2394 26.947 28.7273 23.6762 33.0291 23.6762C35.9067 23.6762 38.4169 25.1408 39.7661 27.317L46.5747 23.6399C43.869 19.258 38.8172 16.3104 33.0291 16.3104C24.3895 16.3104 17.3854 22.8791 17.3854 30.9818C17.3854 33.6404 18.1394 36.1332 19.4572 38.2842C22.157 42.689 27.2239 45.6549 33.0291 45.6549C38.8467 45.6549 43.9208 42.6767 46.6154 38.2597L39.818 34.5654Z" fill="white"/>
</svg>
