<svg width="56" height="49" viewBox="0 0 56 49" fill="none" xmlns="http://www.w3.org/2000/svg">
<path d="M47.8333 5.10419H8.16663L11.6666 39.8125L28 43.8959L44.3333 39.8125L47.8333 5.10419Z" fill="#0277BD"/>
<path d="M28 8.16669V40.7313L41.0667 37.4646L43.9833 8.16669H28Z" fill="#039BE5"/>
<path d="M38.6167 13.2708H28V17.3541H33.7167L33.3667 21.4375H28V25.5208H33.1333L32.7833 30.1146L28 31.5437V35.8312L37.2167 33.1771L38.0333 21.4375L38.6167 13.2708Z" fill="white"/>
<path d="M28.0001 13.2708V17.3541H17.6167L17.2667 13.2708H28.0001ZM22.6334 21.4375L22.8667 25.5208H28.0001V21.4375H22.6334ZM23.1001 27.5625H18.4334L18.7834 33.1771L28.0001 35.8312V31.5437L23.2167 30.1146L23.1001 27.5625Z" fill="#EEEEEE"/>
</svg>
