<svg width="55" height="48" viewBox="0 0 55 48" fill="none" xmlns="http://www.w3.org/2000/svg">
<mask id="mask0_15_252" style="mask-type:luminance" maskUnits="userSpaceOnUse" x="7" y="4" width="40" height="40">
<path d="M7.77051 4.86401H46.3805V43.136H7.77051V4.86401Z" fill="white"/>
</mask>
<g mask="url(#mask0_15_252)">
<path d="M11.2756 39.2765L7.75964 4.90851H46.3914L42.8726 39.272L27.0509 43.093L11.2756 39.2765Z" fill="#E44D26"/>
</g>
<path d="M39.8589 37.0835L42.8673 7.71851H27.0754V40.173L39.8589 37.0835Z" fill="#F16529"/>
<path d="M27.0588 11.9335H14.9474L16.2525 24.68H27.0755V20.4655H20.676L20.2337 16.1495H27.0755V11.9335H27.0588ZM27.0755 31.3985L27.0548 31.403L21.6688 30.136L21.3262 26.7745H16.4685L17.1462 33.3925L27.0537 35.779L27.0755 35.773V31.3985Z" fill="#EBEBEB"/>
<path d="M27.0588 24.68H33.0149L32.4671 30.1455L27.0726 31.414V35.7995L36.988 33.4045L38.3161 20.463H27.0754L27.0588 24.68ZM39.058 13.0645L39.1731 11.9335H27.0565V16.148H38.7377L38.8334 15.2005L39.058 13.0645Z" fill="white"/>
</svg>
