<svg xmlns="http://www.w3.org/2000/svg" xmlns:xlink="http://www.w3.org/1999/xlink" width="500" zoomAndPan="magnify" viewBox="0 0 375 374.999991" height="500" preserveAspectRatio="xMidYMid meet" version="1.0"><defs><g/></defs><path stroke-linecap="butt" transform="matrix(0.75, 0, 0, 0.75, 49.503906, -56.210454)" fill="none" stroke-linejoin="miter" d="M 28.213544 522.863973 C 27.364585 497.61918 26.94271 469.228553 26.94271 437.692092 C 26.94271 408.134799 27.364585 376.84313 28.213544 343.822294 C 29.135419 310.796251 30.583336 277.207707 32.562502 243.056663 C 34.614586 208.900411 37.088544 175.593117 39.989586 143.13999 L 115.614591 144.410823 C 113.000008 164.707699 110.734383 185.353534 108.828132 206.353535 C 106.916674 227.358745 105.395841 248.431663 104.265632 269.57229 C 116.427091 261.155622 131.104176 251.400413 148.286468 240.296246 C 165.536469 229.12437 184.031262 217.81187 203.76043 206.353535 C 223.489598 194.90041 243.250016 183.973326 263.052101 173.577492 C 282.921894 163.113949 301.520853 154.275407 318.843771 147.061865 L 340.166689 220.884786 C 322.484396 228.171245 304.739604 236.160829 286.916686 244.858746 C 269.098976 253.483747 252.161475 262.077497 236.109391 270.63479 C 220.057306 279.192082 205.807305 287.322291 193.364596 295.030625 C 180.916679 302.666042 171.052095 309.311876 163.770844 314.968126 C 156.557302 320.629585 152.953135 324.765002 152.953135 327.379585 C 152.953135 331.129585 158.572927 337.494169 169.81772 346.473336 C 181.13022 355.452504 196.473972 366.025421 215.848973 378.18688 C 235.296891 390.348339 257.395851 403.113965 282.145852 416.478549 C 306.963562 429.770217 332.666689 442.785843 359.255232 455.509802 L 318.843771 522.442098 C 285.890644 505.327513 255.557309 488.181679 227.838557 470.999386 C 200.187513 453.744177 175.578137 437.447301 154.010427 422.098341 C 132.442717 406.686882 114.557299 393.499381 100.343757 382.535839 C 100.343757 393.212923 100.343757 403.926465 100.343757 414.676466 C 100.343757 434.051467 100.55209 452.791052 100.979174 470.890011 C 101.401049 488.994179 101.932299 505.895222 102.567715 521.593139 Z M 28.213544 522.863973 " stroke="#000000" stroke-width="32.584724" stroke-opacity="1" stroke-miterlimit="4"/><g fill="#fae900" fill-opacity="1"><g transform="translate(49.503906, 312.789522)"><g><path d="M 21.1875 23.140625 C 20.53125 4.234375 20.203125 -17.054688 20.203125 -40.734375 C 20.203125 -62.890625 20.523438 -86.347656 21.171875 -111.109375 C 21.828125 -135.878906 22.914062 -161.078125 24.4375 -186.703125 C 25.957031 -212.335938 27.804688 -237.320312 29.984375 -261.65625 L 86.671875 -260.671875 C 84.710938 -245.460938 83.023438 -229.984375 81.609375 -214.234375 C 80.203125 -198.492188 79.066406 -182.691406 78.203125 -166.828125 C 87.328125 -173.128906 98.347656 -180.460938 111.265625 -188.828125 C 124.191406 -197.191406 138.039062 -205.660156 152.8125 -214.234375 C 167.59375 -222.816406 182.421875 -231.019531 197.296875 -238.84375 C 212.179688 -246.664062 226.140625 -253.289062 239.171875 -258.71875 L 255.140625 -203.328125 C 241.890625 -197.898438 228.582031 -191.925781 215.21875 -185.40625 C 201.863281 -178.882812 189.15625 -172.421875 177.09375 -166.015625 C 165.039062 -159.609375 154.34375 -153.523438 145 -147.765625 C 135.65625 -142.015625 128.269531 -137.019531 122.84375 -132.78125 C 117.414062 -128.539062 114.703125 -125.445312 114.703125 -123.5 C 114.703125 -120.675781 118.9375 -115.894531 127.40625 -109.15625 C 135.875 -102.425781 147.382812 -94.5 161.9375 -85.375 C 176.5 -76.25 193.066406 -66.6875 211.640625 -56.6875 C 230.210938 -46.695312 249.488281 -36.925781 269.46875 -27.375 L 239.171875 22.8125 C 214.398438 9.988281 191.640625 -2.878906 170.890625 -15.796875 C 150.148438 -28.722656 131.6875 -40.941406 115.5 -52.453125 C 99.320312 -63.972656 85.910156 -73.859375 75.265625 -82.109375 C 75.265625 -74.078125 75.265625 -66.039062 75.265625 -58 C 75.265625 -43.445312 75.425781 -29.378906 75.75 -15.796875 C 76.082031 -2.222656 76.46875 10.425781 76.90625 22.15625 Z M 21.1875 23.140625 "/></g></g></g></svg>