<svg width="35" height="33" viewBox="0 0 35 33" fill="none" xmlns="http://www.w3.org/2000/svg">
<path d="M29.1667 4.125H5.83333C5.44656 4.125 5.07563 4.26987 4.80214 4.52773C4.52865 4.78559 4.375 5.13533 4.375 5.5V27.5C4.375 27.8647 4.52865 28.2144 4.80214 28.4723C5.07563 28.7301 5.44656 28.875 5.83333 28.875H29.1667C29.5534 28.875 29.9244 28.7301 30.1979 28.4723C30.4714 28.2144 30.625 27.8647 30.625 27.5V5.5C30.625 5.13533 30.4714 4.78559 30.1979 4.52773C29.9244 4.26987 29.5534 4.125 29.1667 4.125ZM12.161 25.2134H8.26437V13.4021H12.161V25.2134ZM10.2127 11.7893C9.61398 11.7893 9.03978 11.565 8.61641 11.1658C8.19305 10.7667 7.95521 10.2253 7.95521 9.66075C7.95521 9.09624 8.19305 8.55484 8.61641 8.15567C9.03978 7.7565 9.61398 7.53225 10.2127 7.53225C10.8114 7.53225 11.3856 7.7565 11.809 8.15567C12.2324 8.55484 12.4702 9.09624 12.4702 9.66075C12.4702 10.2253 12.2324 10.7667 11.809 11.1658C11.3856 11.565 10.8114 11.7893 10.2127 11.7893ZM26.7429 25.2134H22.8506V19.47C22.8506 18.1005 22.8244 16.3391 20.8265 16.3391C18.7994 16.3391 18.4917 17.8324 18.4917 19.3738V25.2147H14.6023V13.4035H18.3356V15.0177H18.3896C18.9073 14.0896 20.179 13.1106 22.0704 13.1106C26.0138 13.1106 26.7415 15.5554 26.7415 18.7371L26.7429 25.2134Z" fill="white"/>
</svg>
