<svg width="52" height="53" viewBox="0 0 52 53" fill="none" xmlns="http://www.w3.org/2000/svg">
<mask id="mask0_15_233" style="mask-type:luminance" maskUnits="userSpaceOnUse" x="5" y="5" width="32" height="32">
<path d="M5.08569 5.30005H36.0533V36.8881H5.08569V5.30005Z" fill="white"/>
</mask>
<g mask="url(#mask0_15_233)">
<mask id="mask1_15_233" style="mask-type:luminance" maskUnits="userSpaceOnUse" x="5" y="5" width="32" height="32">
<path d="M25.7941 5.29565C15.211 5.29565 15.8719 9.97511 15.8719 9.97511L15.8838 14.8235H25.9821V16.2788H11.8727C11.8727 16.2788 5.10083 15.4959 5.10083 26.3841C5.10083 37.2729 11.0115 36.8864 11.0115 36.8864H14.5388V31.8332C14.5388 31.8332 14.3487 25.8061 20.3547 25.8061H30.3712C30.3712 25.8061 35.9975 25.8994 35.9975 20.261V10.9374C35.9975 10.9374 36.8528 5.29565 25.7941 5.29565ZM20.2252 8.55571C21.23 8.55571 22.0415 9.38383 22.0415 10.4079C22.0415 11.4326 21.23 12.2607 20.2252 12.2607C19.2205 12.2607 18.4085 11.4326 18.4085 10.4079C18.4085 9.38383 19.2205 8.55571 20.2252 8.55571Z" fill="white"/>
</mask>
<g mask="url(#mask1_15_233)">
<path d="M5.10083 5.30029V37.2731H36.8528V5.30029H5.10083Z" fill="url(#paint0_linear_15_233)"/>
</g>
</g>
<mask id="mask2_15_233" style="mask-type:luminance" maskUnits="userSpaceOnUse" x="15" y="15" width="32" height="33">
<path d="M15.808 15.9707H46.7897V47.594H15.808V15.9707Z" fill="white"/>
</mask>
<g mask="url(#mask2_15_233)">
<mask id="mask3_15_233" style="mask-type:luminance" maskUnits="userSpaceOnUse" x="15" y="15" width="32" height="33">
<path d="M26.0947 47.5824C36.6767 47.5824 36.0159 42.9018 36.0159 42.9018L36.004 38.0534H25.9052V36.5987H40.0145C40.0145 36.5987 46.7869 37.381 46.7869 26.4934C46.7869 15.6046 40.8768 15.9911 40.8768 15.9911H37.3495V21.0437C37.3495 21.0437 37.5385 27.0714 31.5336 27.0714H21.516C21.516 27.0714 15.8892 26.9781 15.8892 32.6171V41.9395C15.8892 41.9395 15.035 47.5824 26.0947 47.5824ZM31.6625 44.3218C30.6583 44.3218 29.8458 43.4926 29.8458 42.469C29.8458 41.4438 30.6583 40.6168 31.6625 40.6168C32.6679 40.6168 33.4793 41.4438 33.4793 42.469C33.4793 43.4926 32.6679 44.3218 31.6625 44.3218Z" fill="white"/>
</mask>
<g mask="url(#mask3_15_233)">
<path d="M15.035 15.6046V47.5824H46.787V15.6046H15.035Z" fill="url(#paint1_linear_15_233)"/>
</g>
</g>
<defs>
<linearGradient id="paint0_linear_15_233" x1="5.22971" y1="5.16749" x2="37.5546" y2="36.5503" gradientUnits="userSpaceOnUse">
<stop stop-color="#387EB8"/>
<stop offset="0.125" stop-color="#387EB8"/>
<stop offset="0.140625" stop-color="#387EB8"/>
<stop offset="0.15625" stop-color="#387DB7"/>
<stop offset="0.171875" stop-color="#387DB6"/>
<stop offset="0.1875" stop-color="#387CB5"/>
<stop offset="0.203125" stop-color="#387CB4"/>
<stop offset="0.21875" stop-color="#387BB3"/>
<stop offset="0.234375" stop-color="#387BB2"/>
<stop offset="0.25" stop-color="#387AB1"/>
<stop offset="0.265625" stop-color="#387AB1"/>
<stop offset="0.28125" stop-color="#3879B0"/>
<stop offset="0.296875" stop-color="#3879AF"/>
<stop offset="0.3125" stop-color="#3878AE"/>
<stop offset="0.328125" stop-color="#3778AD"/>
<stop offset="0.34375" stop-color="#3777AC"/>
<stop offset="0.359375" stop-color="#3777AB"/>
<stop offset="0.375" stop-color="#3776AB"/>
<stop offset="0.390625" stop-color="#3776AA"/>
<stop offset="0.40625" stop-color="#3775A9"/>
<stop offset="0.421875" stop-color="#3775A8"/>
<stop offset="0.4375" stop-color="#3774A7"/>
<stop offset="0.453125" stop-color="#3774A6"/>
<stop offset="0.46875" stop-color="#3773A5"/>
<stop offset="0.484375" stop-color="#3773A4"/>
<stop offset="0.494335" stop-color="#3772A4"/>
<stop offset="0.5" stop-color="#3772A3"/>
<stop offset="0.505665" stop-color="#3772A3"/>
<stop offset="0.515625" stop-color="#3771A2"/>
<stop offset="0.53125" stop-color="#3771A2"/>
<stop offset="0.546875" stop-color="#3771A1"/>
<stop offset="0.5625" stop-color="#3770A0"/>
<stop offset="0.578125" stop-color="#37709F"/>
<stop offset="0.59375" stop-color="#376F9E"/>
<stop offset="0.609375" stop-color="#376F9D"/>
<stop offset="0.625" stop-color="#376E9D"/>
<stop offset="0.640625" stop-color="#366E9C"/>
<stop offset="0.65625" stop-color="#366D9B"/>
<stop offset="0.671875" stop-color="#366D9A"/>
<stop offset="0.6875" stop-color="#366C99"/>
<stop offset="0.703125" stop-color="#366C98"/>
<stop offset="0.71875" stop-color="#366B97"/>
<stop offset="0.734375" stop-color="#366B97"/>
<stop offset="0.75" stop-color="#366A96"/>
<stop offset="0.765625" stop-color="#366A95"/>
<stop offset="0.78125" stop-color="#366994"/>
<stop offset="0.8125" stop-color="#366994"/>
<stop offset="0.875" stop-color="#366994"/>
<stop offset="1" stop-color="#366994"/>
</linearGradient>
<linearGradient id="paint1_linear_15_233" x1="14.8649" y1="15.7882" x2="47.8843" y2="46.3989" gradientUnits="userSpaceOnUse">
<stop stop-color="#FFE052"/>
<stop offset="0.125" stop-color="#FFE052"/>
<stop offset="0.1875" stop-color="#FFE052"/>
<stop offset="0.21875" stop-color="#FFE052"/>
<stop offset="0.234375" stop-color="#FFDF51"/>
<stop offset="0.25" stop-color="#FFDF51"/>
<stop offset="0.265625" stop-color="#FFDE50"/>
<stop offset="0.28125" stop-color="#FFDD4F"/>
<stop offset="0.296875" stop-color="#FFDD4E"/>
<stop offset="0.3125" stop-color="#FFDC4E"/>
<stop offset="0.328125" stop-color="#FFDB4D"/>
<stop offset="0.34375" stop-color="#FFDB4C"/>
<stop offset="0.359375" stop-color="#FFDA4B"/>
<stop offset="0.375" stop-color="#FFD94B"/>
<stop offset="0.390625" stop-color="#FFD94A"/>
<stop offset="0.40625" stop-color="#FFD849"/>
<stop offset="0.421875" stop-color="#FFD748"/>
<stop offset="0.4375" stop-color="#FFD748"/>
<stop offset="0.453125" stop-color="#FFD647"/>
<stop offset="0.46875" stop-color="#FFD546"/>
<stop offset="0.482837" stop-color="#FFD545"/>
<stop offset="0.484375" stop-color="#FFD445"/>
<stop offset="0.5" stop-color="#FFD445"/>
<stop offset="0.515625" stop-color="#FFD444"/>
<stop offset="0.517163" stop-color="#FFD343"/>
<stop offset="0.53125" stop-color="#FFD343"/>
<stop offset="0.546875" stop-color="#FFD242"/>
<stop offset="0.5625" stop-color="#FFD242"/>
<stop offset="0.578125" stop-color="#FFD141"/>
<stop offset="0.59375" stop-color="#FFD040"/>
<stop offset="0.609375" stop-color="#FFD03F"/>
<stop offset="0.625" stop-color="#FFCF3F"/>
<stop offset="0.640625" stop-color="#FFCE3E"/>
<stop offset="0.65625" stop-color="#FFCE3D"/>
<stop offset="0.671875" stop-color="#FFCD3C"/>
<stop offset="0.6875" stop-color="#FFCC3C"/>
<stop offset="0.703125" stop-color="#FFCC3B"/>
<stop offset="0.71875" stop-color="#FFCB3A"/>
<stop offset="0.734375" stop-color="#FFCA39"/>
<stop offset="0.75" stop-color="#FFCA39"/>
<stop offset="0.765625" stop-color="#FFC938"/>
<stop offset="0.78125" stop-color="#FFC837"/>
<stop offset="0.796875" stop-color="#FFC836"/>
<stop offset="0.8125" stop-color="#FFC735"/>
<stop offset="0.828125" stop-color="#FFC635"/>
<stop offset="0.84375" stop-color="#FFC634"/>
<stop offset="0.859375" stop-color="#FFC533"/>
<stop offset="0.875" stop-color="#FFC432"/>
<stop offset="0.890625" stop-color="#FFC432"/>
<stop offset="0.90625" stop-color="#FFC331"/>
<stop offset="0.9375" stop-color="#FFC331"/>
<stop offset="1" stop-color="#FFC331"/>
</linearGradient>
</defs>
</svg>
