<svg width="53" height="48" viewBox="0 0 53 48" fill="none" xmlns="http://www.w3.org/2000/svg">
<path d="M26.5 34C12.2562 34 1.10413 29.6 1.10413 24C1.10413 18.4 12.2562 14 26.5 14C40.7437 14 51.8958 18.4 51.8958 24C51.8958 29.6 40.7437 34 26.5 34ZM26.5 16C12.5875 16 3.31246 20.1 3.31246 24C3.31246 27.9 12.5875 32 26.5 32C40.4125 32 49.6875 27.9 49.6875 24C49.6875 20.1 40.4125 16 26.5 16Z" fill="#80DEEA"/>
<path d="M16.6729 44.6C15.5687 44.6 14.6854 44.4 13.802 43.9C8.39162 41.1 9.82704 30.2 16.8937 19C20.2062 13.8 24.2916 9.40002 28.2666 6.60002C32.5729 3.60002 36.4375 2.70002 39.0875 4.10002C41.8479 5.50002 42.8416 9.00002 42.1791 13.9C41.5166 18.5 39.3083 23.9 35.9958 29.1C32.6833 34.3 28.5979 38.7 24.6229 41.5C21.752 43.5 18.9916 44.6 16.6729 44.6ZM36.327 5.40002C34.5604 5.40002 32.2416 6.30002 29.702 8.10002C25.9479 10.8 22.0833 15 18.8812 20C11.925 30.9 11.2625 40.3 14.9062 42.2C16.7833 43.2 19.875 42.3 23.2979 39.9C27.052 37.2 30.9166 33 34.1187 28C37.3208 23 39.4187 17.9 40.0812 13.6C40.6333 9.60002 39.9708 6.80002 38.0937 5.80002C37.5416 5.60002 36.9895 5.40002 36.327 5.40002Z" fill="#80DEEA"/>
<path d="M36.4374 44.6C30.9166 44.6 22.9666 38.5 17.0041 29C9.82703 17.8 8.39162 6.90001 13.802 4.10001C19.2124 1.30001 28.9291 7.80001 36.1062 19C39.4187 24.2 41.627 29.6 42.2895 34.2C43.0624 39.1 41.9583 42.5 39.1979 44C38.3145 44.4 37.4312 44.6 36.4374 44.6ZM14.9062 5.80001C11.2624 7.70001 11.9249 17.1 18.8812 28C25.8375 38.9 34.4499 44.1 38.0937 42.2C39.9708 41.2 40.6333 38.4 40.0812 34.4C39.4187 30.1 37.3208 25 34.1187 20C27.1624 9.10001 18.5499 3.90001 14.9062 5.80001Z" fill="#80DEEA"/>
<path d="M26.5 28C28.9393 28 30.9167 26.2091 30.9167 24C30.9167 21.7909 28.9393 20 26.5 20C24.0608 20 22.0834 21.7909 22.0834 24C22.0834 26.2091 24.0608 28 26.5 28Z" fill="#80DEEA"/>
</svg>
