<svg width="49" height="48" viewBox="0 0 49 48" fill="none" xmlns="http://www.w3.org/2000/svg">
<path fill-rule="evenodd" clip-rule="evenodd" d="M43.2801 30.5538V16.1936C43.2801 14.362 42.2899 12.6673 40.6778 11.7394L27.1048 3.92758C25.0964 2.77172 22.6004 2.79783 20.6177 3.99549L9.12758 10.9363C6.76004 12.3663 5.31873 14.8961 5.31873 17.6206V31.6764C5.31873 34.0097 6.58316 36.1685 8.64021 37.3462L21.1555 44.5123C22.8197 45.4653 24.8739 45.4852 26.558 44.5673L40.4142 37.0067C42.1827 36.0409 43.2793 34.2134 43.2793 32.2301V30.5513L43.2801 30.5538Z" fill="#0594CB"/>
<path fill-rule="evenodd" clip-rule="evenodd" d="M23.9359 1.49862H23.9691L23.9987 1.49897H24.0019L24.0318 1.49932H24.035L24.0649 1.49979H24.0673L24.0971 1.50049H24.1007L24.1294 1.50131H24.133L24.1617 1.50225H24.1653L24.1951 1.50342H24.1987L24.2286 1.50459H24.2322L24.2621 1.50576L24.2645 1.50599L24.2943 1.50716L24.2967 1.50752L24.3266 1.50904H24.3302L24.3601 1.51068L24.3625 1.51091L24.3923 1.51255H24.3947L24.4246 1.51454L24.427 1.51477L24.4569 1.51677H24.4605L24.4903 1.51911H24.4927L24.5214 1.52145L24.525 1.5218L24.5549 1.52391L24.5585 1.52426L24.5883 1.5266L24.5919 1.52695L24.6206 1.52929H24.623L24.6529 1.53163H24.6565L24.6863 1.53397H24.6899L24.7198 1.53632H24.7234L24.7521 1.53866H24.7545L24.7843 1.54217H24.7879L24.8166 1.54568H24.8202L24.8501 1.54919H24.8536L24.8835 1.55271H24.8871L24.917 1.55622H24.9206L24.9493 1.55973H24.9516L24.9803 1.56324H24.9839L25.0126 1.56676H25.0162L25.0449 1.57027H25.0485L25.0783 1.57378H25.0807L25.1106 1.57729H25.1142L25.1441 1.58197H25.1476L25.1763 1.58666H25.1787L25.2086 1.59134H25.2122L25.2409 1.59602H25.2445L25.2743 1.60071H25.2779L25.3078 1.60539H25.3114L25.3401 1.61124H25.3425L25.3723 1.6171H25.3759L25.4046 1.62178H25.4082L25.4369 1.62763L25.4405 1.6288L25.4703 1.63466L25.4739 1.63583L25.5038 1.64168L25.5074 1.64285L25.5361 1.64871H25.5385L25.5671 1.65456H25.5695L25.5994 1.66041H25.603L25.6317 1.66627H25.6353L25.6639 1.67329H25.6675L25.6962 1.68032L25.6986 1.68149L25.7273 1.68851L25.7309 1.68968L25.7596 1.69671H25.7631L25.7918 1.70373L25.7942 1.7049L25.8229 1.71193L25.8253 1.7131L25.854 1.72129H25.8575L25.8862 1.72832L25.8898 1.72949L25.9185 1.73651H25.9221L25.9508 1.74354H25.9532L25.9818 1.75056L25.9854 1.75173L26.0141 1.75876L26.0177 1.75993L26.0464 1.76812L26.0488 1.76929L26.0775 1.77749H26.081L26.1097 1.78568L26.1133 1.78685L26.142 1.79505L26.1444 1.79622L26.1731 1.80441L26.1766 1.80558L26.2053 1.81378L26.2089 1.81495L26.2376 1.82315L26.2412 1.82432L26.2699 1.83251L26.2735 1.83368L26.3021 1.84188L26.3045 1.84305L26.3332 1.85241L26.3356 1.85358L26.3643 1.86295H26.3679L26.4288 1.88285L26.4312 1.88402L26.4599 1.89339L26.4623 1.89456L26.5878 1.93554L26.5902 1.93671L26.6224 1.94724L26.6511 1.95778L26.6547 1.95895L26.6834 1.96949L26.687 1.97066L26.7145 1.98119L26.718 1.98237L26.7467 1.9929L26.7503 1.99407L26.7778 2.00461L26.7814 2.00578L26.8101 2.01632L26.8136 2.01749L26.8411 2.02919L26.8447 2.03037L26.8722 2.04207L26.8758 2.04324L26.9033 2.05495L26.9057 2.05612L26.9344 2.06666L26.9367 2.06783L26.9642 2.07954L26.9678 2.08071L26.9965 2.09241L26.9989 2.09358L27.0264 2.10529L27.0288 2.10646L27.0563 2.11817L27.0598 2.11934L27.0885 2.13105L27.0921 2.13222L27.1196 2.14393L27.122 2.1451L27.1495 2.15797L27.1531 2.15915L27.1805 2.17085L27.1829 2.17202L27.2104 2.1849L27.2128 2.18607L27.2403 2.19895L27.2439 2.20012L27.2726 2.21183L27.275 2.21417L27.3025 2.22705L27.3048 2.22822L27.3323 2.2411L27.3347 2.24227L27.3622 2.25515L27.3658 2.25632L27.3933 2.26919L27.3969 2.27036L27.4244 2.28324L27.4267 2.28441L27.4542 2.29729L27.4578 2.29846L27.4841 2.31251L27.4865 2.31485L27.514 2.3289L27.5176 2.33007L27.5451 2.34412L27.5475 2.34529L27.5749 2.35934L27.5785 2.36051L27.606 2.37456L27.6096 2.3769L27.6359 2.39095L27.6395 2.39212L27.667 2.40617L27.6694 2.40734L27.6956 2.42139L27.698 2.42256L27.7255 2.43661L27.7279 2.43778L27.7542 2.45183L27.7578 2.453L27.7841 2.46822L27.7865 2.46939L27.8128 2.48461L27.8152 2.48695L27.8415 2.50217L27.8438 2.50451L27.8701 2.51973L27.8737 2.52207L27.9012 2.53729L41.4897 10.3671L41.5113 10.38L41.5148 10.3812L41.5364 10.3941L41.5399 10.3964L41.5615 10.4093L41.5638 10.4116L41.5854 10.4245L41.5877 10.4257L41.6093 10.4386L41.6116 10.4409L41.6332 10.4538L41.6356 10.4561L41.6571 10.469L41.6595 10.4702L41.6798 10.483L41.6822 10.4842L41.7037 10.4971L41.7061 10.4983L41.7264 10.5111L41.7288 10.5123L41.7491 10.5252L41.7515 10.5264L41.7718 10.5404L41.7754 10.5416L41.7957 10.5556L41.7981 10.5568L41.8232 10.5732L41.8638 10.6001L41.8698 10.6036L41.9116 10.6317L41.9176 10.6352L41.9582 10.6633L41.963 10.6669L42.0037 10.695L42.0096 10.6985L42.0503 10.7266L42.0562 10.7301L42.0957 10.7593L42.1005 10.7629L42.1399 10.7921L42.1447 10.7956L42.1841 10.8249L42.1889 10.8284L42.2283 10.8577L42.2331 10.8624L42.2726 10.8928L42.2773 10.8975L42.3156 10.9279L42.3204 10.9314L42.3586 10.9619L42.3634 10.9654L42.4016 10.9958L42.4064 11.0005L42.4446 11.0321L42.4494 11.0356L42.4877 11.0672L42.4925 11.0708L42.5295 11.1024L42.5343 11.1059L42.5713 11.1375L42.5761 11.141L42.6132 11.1726L42.6179 11.1761L42.6538 11.2089L42.6586 11.2124L42.6944 11.2452L42.6992 11.2499L42.7351 11.2827L42.7398 11.2873L42.7745 11.3201L42.7793 11.3248L42.8151 11.3588L42.9335 11.4747L42.937 11.4793L42.9717 11.5145L42.9765 11.5191L43.0099 11.5543L43.0147 11.559L43.0482 11.5941L43.053 11.5988L43.0864 11.6339L43.0912 11.6386L43.1247 11.6749L43.1283 11.6795L43.1605 11.7158L43.1641 11.7205L43.1964 11.7568L43.2012 11.7615L43.2334 11.7978L43.237 11.8025L43.2681 11.8388L43.2717 11.8434L43.3039 11.8797L43.3087 11.8844L43.3398 11.9207L43.3434 11.9266L43.3745 11.964L43.378 11.9687L43.4079 12.0062L43.4115 12.012L43.4414 12.0495L43.445 12.0542L43.4748 12.0928L43.4784 12.0975L43.5071 12.1361L43.5119 12.1408L43.5406 12.1794L43.5442 12.1841L43.5728 12.2228L43.5764 12.2274L43.6051 12.2661L43.6087 12.2708L43.6362 12.3106L43.6398 12.3164L43.6673 12.3562L43.6708 12.3621L43.6983 12.4019L43.7019 12.4066L43.7294 12.4464L43.733 12.4522L43.7593 12.492L43.7629 12.4979L43.7892 12.5377L43.7927 12.5435L43.819 12.5845L43.8226 12.5904L43.8489 12.6313L43.8525 12.6372L43.8776 12.677L43.9063 12.7238L43.9087 12.7297L43.9338 12.7707L43.9374 12.7753L43.9613 12.8163L43.9648 12.8222L43.9899 12.8643L43.9935 12.8702L44.0174 12.9123L44.021 12.917L44.0437 12.9591L44.0461 12.965L44.07 13.0071L44.0724 13.013L44.0951 13.0551L44.0987 13.061L44.1202 13.1031L44.1226 13.109L44.1453 13.1523L44.1477 13.157L44.1692 13.2003L44.1716 13.2062L44.1931 13.2495L44.1955 13.2553L44.2158 13.2987L44.2182 13.3045L44.2397 13.3478L44.2421 13.3537L44.2624 13.397L44.266 13.4029L44.2851 13.4462L44.2875 13.452L44.3066 13.4965L44.309 13.5024L44.3282 13.5469L44.3317 13.5527L44.3509 13.5972L44.3533 13.603L44.3724 13.6475L44.3748 13.6534L44.3927 13.6979L44.3951 13.7037L44.413 13.7482L44.4154 13.7541L44.4321 13.7986L44.4345 13.8044L44.4513 13.8489L44.4536 13.8548L44.4704 13.9004L44.4728 13.9063L44.4883 13.9519L44.4907 13.9578L44.5062 14.0034L44.5086 14.0093L44.5242 14.055L44.5266 14.0608L44.5421 14.1065L44.5445 14.1123L44.5588 14.158L44.56 14.1638L44.5744 14.2095L44.5767 14.2153L44.5911 14.261L44.5923 14.2669L44.6054 14.3137L44.6078 14.3195L44.621 14.3652L44.6234 14.371L44.6365 14.4179L44.6389 14.4237L44.6508 14.4706L44.652 14.4764L44.664 14.5232L44.6652 14.5291L44.6771 14.5759L44.6783 14.5818L44.6903 14.6286L44.6915 14.6356L44.7022 14.6825L44.7046 14.6883L44.7154 14.7363L44.7166 14.7422L44.7273 14.789L44.7285 14.7949L44.7393 14.8429L44.7405 14.8487L44.75 14.8967L44.7512 14.9026L44.7608 14.9506L44.762 14.9576L44.7704 15.0056V15.0126L44.7787 15.0606L44.7799 15.0665L44.7871 15.1145L44.7883 15.1215L44.7955 15.1695L44.7966 15.1765L44.8038 15.2245L44.805 15.2304L44.8122 15.2784L44.8134 15.2854L44.8194 15.3346L44.8205 15.3416L44.8265 15.3896V15.3966L44.8325 15.4446L44.8337 15.4505L44.8385 15.4996L44.8397 15.5055L44.8445 15.5547V15.5617L44.8492 15.6109L44.8504 15.6167L44.854 15.6647L44.8552 15.6717L44.8588 15.7209V15.7279L44.8612 15.7759V15.7806L44.8624 15.8052V15.8075L44.8636 15.8321V15.8356L44.8648 15.8602V15.8637L44.866 15.8883V15.8918L44.8672 15.9164V15.9199L44.8684 15.9445V15.9761L44.8695 16.0007V32.3067L44.8684 32.3324V32.3348L44.8672 32.3605V32.3933L44.866 32.419V32.4226L44.8648 32.4495V32.4518L44.8636 32.4776V32.4811L44.8624 32.5069V32.5104L44.8612 32.5361L44.86 32.5396L44.8588 32.5654V32.5689L44.8576 32.5958V32.5993L44.8564 32.6251V32.6286L44.854 32.6544L44.8528 32.6579L44.8504 32.6848V32.6883L44.8492 32.7152V32.7188L44.8468 32.7457V32.7492L44.8456 32.775V32.7785L44.8433 32.8054V32.8089L44.8409 32.8347L44.8397 32.8382L44.8373 32.8639V32.8674L44.8349 32.8944V32.8967L44.8325 32.9225L44.8313 32.926L44.8289 32.9517L44.8277 32.9552L44.8253 32.981V32.9845L44.8217 33.0114V33.015L44.8182 33.0407V33.0442L44.8146 33.07V33.0735L44.811 33.0992L44.8098 33.1028L44.8062 33.1285L44.805 33.132L44.8014 33.1578L44.8002 33.1613L44.7966 33.187V33.1906L44.7931 33.2163V33.2198L44.7895 33.2456V33.2479L44.7859 33.2737V33.2772L44.7823 33.303V33.3065L44.7787 33.3322L44.7775 33.3357L44.7739 33.3615L44.7727 33.365L44.768 33.3908V33.3931L44.7632 33.4189V33.4224L44.7596 33.4481V33.4505L44.7548 33.4762L44.7536 33.4797L44.7488 33.5055V33.509L44.7441 33.5348L44.7429 33.5383L44.7381 33.5629L44.7369 33.5664L44.7309 33.5921V33.5956L44.7249 33.6214L44.7237 33.6237L44.719 33.6495L44.7178 33.653L44.713 33.6776L44.7118 33.6811L44.7058 33.7069L44.7046 33.7092L44.6986 33.735V33.7385L44.6927 33.7642V33.7666L44.6867 33.7923L44.6855 33.7958L44.6795 33.8204L44.6783 33.8228L44.6724 33.8485L44.6712 33.852L44.6652 33.8778L44.664 33.8813L44.6568 33.9059L44.6556 33.9094L44.6496 33.934L44.6485 33.9363L44.6425 33.9621V33.9656L44.6353 33.9913L44.6341 33.9949L44.6281 34.0194L44.6269 34.023L44.6198 34.0475V34.051L44.6126 34.0756L44.6114 34.0791L44.6042 34.1037V34.1072L44.5971 34.1318V34.1353L44.5899 34.1599L44.5887 34.1634L44.5815 34.188L44.5803 34.1915L44.5732 34.2161L44.572 34.2185L44.5648 34.243L44.5266 34.3554L44.5254 34.3578L44.4979 34.4386L44.4967 34.4409L44.4883 34.4655L44.4871 34.4678L44.4584 34.5521L44.4489 34.5767L44.4297 34.6329L44.4286 34.6352L44.419 34.6598L44.4178 34.6622L44.4082 34.6868L44.407 34.6903L44.3975 34.7137L44.3963 34.7172L44.3867 34.7418L44.3855 34.7441L44.376 34.7675L44.3748 34.771L44.3652 34.7956L44.364 34.7991L44.3545 34.8226L44.3533 34.8261L44.3437 34.8495L44.3425 34.853L44.3329 34.8764L44.3317 34.8799L44.3222 34.9033L44.321 34.9069L44.3114 34.9303L44.3102 34.9338L44.2995 34.9584L44.2983 34.9619L44.2875 34.9853L44.2863 34.9888L44.2756 35.0122L44.2744 35.0146L44.2636 35.038L44.2624 35.0415L44.2517 35.0649L44.2505 35.0684L44.2397 35.0918L44.2385 35.0942L44.2278 35.1176L44.2266 35.1199L44.2158 35.1433L44.2134 35.1469L44.2027 35.1703L44.2015 35.1726L44.1895 35.1949L44.1883 35.1984L44.1776 35.2218L44.1752 35.2241L44.1644 35.2475L44.1501 35.2756L44.1393 35.2979L44.1262 35.3236L44.1238 35.3271L44.1118 35.3494L44.1106 35.3529L44.0987 35.3751L44.0844 35.4032L44.0724 35.4255L44.0593 35.4512L44.0581 35.4548L44.0461 35.477L44.0437 35.4805L44.0306 35.5028L44.0294 35.5051L44.0162 35.5285L44.015 35.5309L44.0031 35.5531L44.0019 35.5566L43.9887 35.5789L43.9744 35.607L43.9613 35.6292L43.9601 35.6327L43.9469 35.655L43.9445 35.6585L43.9326 35.6807L43.9302 35.6842L43.917 35.7065L43.9146 35.7088L43.9015 35.731L43.9003 35.7334L43.8872 35.7556L43.8848 35.758L43.8716 35.7802L43.8692 35.7826L43.8561 35.8048L43.8549 35.8083L43.8417 35.8306L43.8405 35.8329L43.8274 35.8551L43.8262 35.8575L43.8131 35.8797L43.8119 35.8832L43.7975 35.9055L43.7951 35.9078L43.7808 35.9301L43.7784 35.9324L43.7617 35.957L43.7473 35.9792L43.7449 35.9828L43.7318 36.0038L43.7306 36.0062L43.7163 36.0284L43.7151 36.0308L43.7007 36.0518L43.6983 36.0542L43.684 36.0752L43.6828 36.0788L43.6685 36.0998L43.6673 36.1033L43.6529 36.1244L43.6517 36.1268L43.6374 36.1478L43.6362 36.1502L43.6218 36.1712L43.6206 36.1736L43.6063 36.1947L43.6051 36.1982L43.5896 36.2192L43.5872 36.2216L43.5728 36.2427L43.5705 36.245L43.5537 36.2696L43.5382 36.2907L43.5358 36.293L43.5203 36.3141L43.5191 36.3164L43.5035 36.3375L43.5011 36.3398L43.4856 36.3609L43.4844 36.3632L43.4689 36.3843L43.4677 36.3867L43.4521 36.4077L43.4497 36.4101L43.433 36.43L43.4306 36.4323L43.4151 36.4534L43.4127 36.4557L43.3972 36.4756L43.3948 36.478L43.3792 36.4991L43.3768 36.5014L43.3601 36.5225L43.3577 36.5248L43.3422 36.5447L43.3398 36.5471L43.3243 36.567L43.3219 36.5693L43.3063 36.5892L43.3039 36.5915L43.2872 36.6114L43.2848 36.6138L43.2681 36.6337L43.2669 36.636L43.2502 36.6559L43.2478 36.6583L43.231 36.6782L43.2286 36.6805L43.2119 36.7004L43.2095 36.7028L43.1928 36.7227L43.1916 36.725L43.1749 36.7449L43.1725 36.7472L43.1557 36.7671L43.1545 36.7695L43.1378 36.7894L43.1366 36.7917L43.1199 36.8116L43.1175 36.814L43.0996 36.8339L43.0972 36.8362L43.0793 36.855L43.0781 36.8573L43.0601 36.876L43.0577 36.8784L43.041 36.8971L43.0386 36.8994L43.0207 36.9182L43.0183 36.9205L43.0004 36.9392L42.998 36.9416L42.9801 36.9603L42.9777 36.9627L42.9597 36.9814L42.9574 36.9837L42.9394 37.0025L42.937 37.0048L42.9191 37.0235L42.9167 37.0259L42.8988 37.0446L42.8749 37.068L42.857 37.0868L42.8546 37.0891L42.8366 37.1078L42.8355 37.1102L42.8139 37.1312L42.796 37.15L42.7936 37.1523L42.7757 37.171L42.7518 37.1945L42.7327 37.212L42.7303 37.2144L42.7112 37.2319L42.6873 37.2553L42.6681 37.2729L42.6657 37.2752L42.6466 37.2928L42.6442 37.2951L42.6251 37.3127L42.6227 37.3151L42.6036 37.3326L42.6012 37.335L42.5809 37.3537L42.5785 37.356L42.5594 37.3736L42.557 37.3759L42.5379 37.3935L42.5355 37.3958L42.5164 37.4134L42.514 37.4157L42.4936 37.4333L42.4913 37.4356L42.4709 37.4532L42.4686 37.4555L42.4482 37.4719L42.4458 37.4743L42.4255 37.4918L42.4231 37.493L42.4028 37.5094L42.4004 37.5117L42.3801 37.5293L42.3777 37.5316L42.3574 37.548L42.355 37.5504L42.3347 37.5668L42.3323 37.5691L42.312 37.5855L42.3096 37.5878L42.2893 37.6054L42.2869 37.6066L42.2666 37.623L42.2642 37.6253L42.2439 37.6417L42.2415 37.644L42.2212 37.6604L42.2188 37.6628L42.1985 37.6791L42.1961 37.6815L42.1757 37.6979L42.1734 37.6991L42.153 37.7154L42.1506 37.7178L42.1303 37.7342L42.1279 37.7365L42.1064 37.7529L42.1028 37.7552L42.0813 37.7716L42.0777 37.774L42.0562 37.7904L42.0538 37.7927L42.0335 37.8091L42.0299 37.8103L42.0084 37.8267L42.006 37.8278L41.9845 37.8442L41.9809 37.8466L41.9594 37.8618L41.957 37.8641L41.9355 37.8793L41.9331 37.8805L41.9116 37.8957L41.9092 37.8969L41.8877 37.9121L41.8841 37.9133L41.8626 37.9297L41.859 37.9309L41.8375 37.9461L41.8339 37.9472L41.8124 37.9625L41.81 37.9648L41.7873 37.98L41.7849 37.9812L41.7622 37.9964L41.7586 37.9988L41.7359 38.0128L41.7336 38.0151L41.712 38.0304L41.7096 38.0327L41.6881 38.0468L41.6857 38.0491L41.663 38.0631L41.6606 38.0655L41.6391 38.0795L41.6367 38.0807L41.614 38.0959L41.6105 38.0983L41.5877 38.1123L41.5854 38.1135L41.5626 38.1275L41.5603 38.1287L41.5375 38.1428L41.534 38.1439L41.5113 38.158L41.5089 38.1591L41.4862 38.1732L41.4826 38.1755L41.4599 38.1896L41.4575 38.1919L41.4348 38.2048L41.4324 38.2071L41.4097 38.2212L41.4073 38.2224L41.3846 38.2364L41.3822 38.2376L41.3595 38.2516L41.3571 38.2528L41.3344 38.2669L41.3308 38.2692L41.3069 38.2832L41.3045 38.2844L41.2818 38.2985L41.2794 38.2996L41.2555 38.3137L41.2531 38.316L41.2292 38.3289L41.2256 38.3301L41.2017 38.3441L41.1993 38.3453L41.1766 38.3582L41.1742 38.3593L27.3144 45.9211L27.3132 45.9223L27.2917 45.934L27.2893 45.9352L27.2666 45.9469L27.263 45.948L27.2403 45.9597L27.2379 45.9621L27.2152 45.975L27.2116 45.9761L27.1889 45.989L27.1865 45.9913L27.1638 46.0031L27.1602 46.0054L27.1375 46.0171L27.1088 46.0312L27.0861 46.0429L27.0837 46.044L27.061 46.0546L27.0586 46.0569L27.0347 46.0674L27.0312 46.0686L27.0085 46.0803L26.9798 46.0944L26.9571 46.1049L26.9535 46.1072L26.9296 46.1178L26.9272 46.119L26.9045 46.1295L26.9009 46.1307L26.877 46.1412L26.8734 46.1424L26.8507 46.1529L26.8483 46.1541L26.8244 46.1646L26.822 46.1658L26.7981 46.1763L26.7945 46.1775L26.7706 46.188L26.767 46.1892L26.7443 46.1997L26.7419 46.2009L26.7192 46.2114L26.7168 46.2126L26.6929 46.2231L26.6905 46.2243L26.6678 46.2337L26.6643 46.2349L26.6404 46.2454L26.6368 46.2466L26.6129 46.2571L26.6105 46.2583L26.5866 46.2676L26.583 46.2688L26.5591 46.2782L26.5567 46.2793L26.5328 46.2887L26.5292 46.2899L26.5053 46.2992L26.5029 46.3004L26.479 46.3098L26.4766 46.311L26.4527 46.3203L26.4491 46.3215L26.4252 46.3297L26.4228 46.3309L26.4001 46.3402L26.3977 46.3414L26.3738 46.3508L26.3715 46.3519L26.3475 46.3601L26.344 46.3613L26.3201 46.3695L26.3165 46.3707L26.2926 46.38L26.2902 46.3812L26.2663 46.3894L26.2627 46.3906L26.2388 46.3999L26.2364 46.4011L26.2125 46.4093L26.2101 46.4105L26.1862 46.4187L26.1838 46.4198L26.1599 46.428L26.1563 46.4292L26.1324 46.4362L26.13 46.4374L26.1061 46.4456L26.1026 46.4468L26.0786 46.455L26.0751 46.4561L26.0512 46.4643L26.0476 46.4655L26.0237 46.4737L26.0201 46.4749L25.995 46.4819L25.9663 46.4912H25.9639L25.9388 46.4983L25.934 46.4994L25.8862 46.5135L25.8803 46.5147L25.8313 46.5287L25.8241 46.5299L25.7763 46.5428L25.7691 46.5439L25.7201 46.5568L25.7141 46.5591L25.6651 46.572L25.6592 46.5732L25.6102 46.5849L25.6042 46.5861L25.5552 46.5978L25.548 46.6001L25.499 46.6118L25.4918 46.613L25.4428 46.6247L25.4357 46.6259L25.3867 46.6364L25.3807 46.6376L25.3317 46.6481L25.3257 46.6493L25.2767 46.6598L25.2707 46.661L25.2206 46.6704L25.2146 46.6715L25.1656 46.6797L25.1596 46.6809L25.1094 46.6903L25.1034 46.6914L25.0532 46.6996L25.0473 46.7008L24.9971 46.709L24.9911 46.7102L24.9421 46.7172H24.9349L24.8859 46.7242L24.8799 46.7254L24.8309 46.7324H24.825L24.776 46.7394L24.77 46.7406L24.7198 46.7465L24.7138 46.7476L24.6636 46.7535L24.6576 46.7547L24.6075 46.7605H24.6015L24.5513 46.7652L24.5441 46.7664L24.4939 46.771H24.4879L24.4377 46.7757H24.4318L24.3816 46.7792L24.3756 46.7804L24.3254 46.7828L24.3182 46.7839L24.268 46.7863H24.2609L24.2107 46.7886L24.2047 46.7892L24.1545 46.7915H24.1557L24.1055 46.7927H24.0995L24.0493 46.7951L23.9991 46.7955H23.992L23.9418 46.7967H23.8223L23.7721 46.7955H23.7649L23.7147 46.7943H23.7087L23.6585 46.7928L23.6525 46.7917L23.6024 46.7905H23.5964L23.5462 46.7881H23.5402L23.49 46.7858L23.484 46.7846L23.4338 46.7811H23.4279L23.3777 46.7776H23.3717L23.3215 46.7741L23.3155 46.7729L23.2653 46.7682H23.2594L23.2092 46.7636L23.2032 46.7624L23.153 46.7565L23.147 46.7554L23.0968 46.7495L23.0908 46.7483L23.0418 46.7425H23.0359L22.9857 46.7366H22.9797L22.9295 46.7296L22.9235 46.7284L22.8733 46.7214L22.8674 46.7202L22.8184 46.7132L22.8124 46.712L22.7634 46.705L22.7574 46.7038L22.7072 46.6957L22.7012 46.6945L22.651 46.6863L22.6451 46.6851L22.5961 46.6758L22.5901 46.6746L22.5411 46.6652L22.5351 46.664L22.4861 46.6547L22.4789 46.6535L22.4299 46.6441L22.424 46.643L22.375 46.6324L22.369 46.6313L22.3188 46.6207L22.3128 46.6196L22.2638 46.6079L22.2578 46.6067L22.2088 46.595L22.2017 46.5938L22.1527 46.5821L22.1455 46.5809L22.0965 46.5692L22.0905 46.5669L22.0415 46.554L22.0355 46.5528L21.9865 46.5399L21.9806 46.5376L21.9316 46.5236L21.9256 46.5224L21.8778 46.5083L21.8706 46.5072L21.8228 46.4931L21.8168 46.4919L21.769 46.4767L21.7631 46.4756L21.6878 46.451L21.6854 46.4498L21.6615 46.4428L21.6591 46.4416L21.6352 46.4334L21.6328 46.4322L21.6089 46.4252L21.6053 46.424L21.5814 46.4159L21.579 46.4147L21.5551 46.4065L21.5515 46.4053L21.5276 46.3971L21.524 46.396L21.5001 46.3878L21.4966 46.3866L21.4726 46.3784L21.4691 46.3772L21.4452 46.3679L21.4416 46.3667L21.4177 46.3585L21.4153 46.3573L21.3914 46.3491L21.3878 46.3479L21.3639 46.3386L21.3615 46.3374L21.3376 46.328L21.334 46.3269L21.3101 46.3175L21.3065 46.3163L21.2826 46.307L21.2802 46.3058L21.2563 46.2964L21.2527 46.2953L21.2288 46.2859L21.2253 46.2847L21.2014 46.2742L21.1978 46.273L21.1739 46.2637L21.1703 46.2625L21.1464 46.2531L21.144 46.2508L21.1201 46.2414L21.1165 46.2402L21.0938 46.2309L21.0902 46.2297L21.0675 46.2203L21.0651 46.2192L21.0424 46.2086L21.0388 46.2075L21.0149 46.1969L21.0113 46.1958L20.9874 46.1852L20.9838 46.184L20.9611 46.1735L20.958 46.1723L20.9341 46.1618L20.9317 46.1606L20.909 46.1501L20.9066 46.1489L20.8827 46.1384L20.8792 46.136L20.8564 46.1255L20.8529 46.1243L20.829 46.1138L20.8266 46.1126L20.8039 46.1009L20.8003 46.0986L20.7776 46.088L20.7513 46.0752L20.7489 46.0728L20.7262 46.0611L20.7226 46.0599L20.6999 46.0482L20.6963 46.0471L20.6736 46.0354L20.67 46.033L20.6473 46.0213L20.6449 46.0201L20.6222 46.0084L20.6198 46.0073L20.5971 45.9956L20.5947 45.9944L20.572 45.9815L20.5684 45.9792L20.5457 45.9675L20.5433 45.9663L20.5206 45.9546L20.517 45.9522L20.4943 45.9394L20.4907 45.937L20.468 45.9241L20.4656 45.9218L20.4429 45.9101L20.4393 45.9089L20.4166 45.896L20.4142 45.8949L20.3915 45.882L20.3892 45.8808L20.3664 45.8679L20.3629 45.8656L20.3413 45.8527L20.3401 45.8516L7.81766 38.6867L7.81527 38.6855L7.78898 38.6703L7.78539 38.6679L7.75791 38.6516L7.75552 38.6504L7.72922 38.6352L7.72683 38.6328L7.70054 38.6164L7.69815 38.6153L7.67186 38.6L7.66947 38.5989L7.64198 38.5825L7.63959 38.5813L7.6133 38.5661L7.61091 38.5649L7.58461 38.5485L7.58222 38.5474L7.55593 38.531L7.55354 38.5298L7.52725 38.5134L7.52486 38.5111L7.49856 38.4947L7.49617 38.4935L7.46988 38.4759L7.46749 38.4748L7.44239 38.4584L7.44 38.456L7.41371 38.4385L7.38503 38.4198L7.38264 38.4186L7.35635 38.401L7.35396 38.3987L7.32766 38.3823L7.32527 38.3799L7.30017 38.3636L7.29778 38.3624L7.27149 38.3448L7.2691 38.3425L7.244 38.3249L7.24161 38.3226L7.21652 38.305L7.21413 38.3038L7.18903 38.2863L7.18544 38.2839L7.16035 38.2664L7.15796 38.264L7.13286 38.2465L7.12927 38.2441L7.10417 38.2254L7.10178 38.2231L7.07669 38.2055L7.0743 38.2032L7.0492 38.1844L7.04681 38.1821L7.02171 38.1645L7.01932 38.1622L6.99542 38.1435L6.99303 38.1411L6.96793 38.1224L6.96554 38.12L6.94044 38.1013L6.93805 38.099L6.91296 38.0802L6.91057 38.0779L6.88666 38.0592L6.88308 38.058L6.85917 38.0393L6.85559 38.0369L6.83169 38.0182L6.8293 38.0159L6.80539 37.9971L6.803 37.9948L6.7791 37.9749L6.77671 37.9725L6.75281 37.9538L6.75042 37.9515L6.72652 37.9316L6.72413 37.9292L6.70022 37.9105L6.69783 37.9081L6.67393 37.8894L6.67154 37.8871L6.648 37.8672L6.64561 37.8648L6.6217 37.8461L6.61931 37.8438L6.59541 37.8239L6.59302 37.8215L6.56912 37.8028L6.56673 37.8004L6.54283 37.7805L6.54044 37.7794L6.51773 37.7595L6.51534 37.7571L6.49263 37.7372L6.49024 37.7349L6.46634 37.715L6.46395 37.7126L6.44124 37.6927L6.43885 37.6904L6.41614 37.6705L6.41375 37.6681L6.39105 37.6471L6.38866 37.6447L6.36595 37.6248L6.36356 37.6225L6.34085 37.6026L6.33846 37.6002L6.31575 37.5803L6.31336 37.578L6.29066 37.5581L6.26675 37.5347L6.26436 37.5335L6.24166 37.5124L6.23927 37.5101L6.21775 37.4902L6.16756 37.441L6.14605 37.4211L6.09585 37.3719L6.07434 37.3497L6.07195 37.3474L6.05163 37.3263L6.05044 37.3239L6.02892 37.3017L6.00263 37.2759L5.98231 37.2549L5.95602 37.2291L5.9357 37.2069L5.93331 37.2045L5.9118 37.1823L5.90941 37.18L5.88909 37.1577L5.8867 37.1554L5.86639 37.1331L5.864 37.1308L5.84368 37.1085L5.84129 37.1062L5.82097 37.0839L5.81858 37.0816L5.79826 37.0594L5.79587 37.057L5.77556 37.0348L5.77317 37.0324L5.75285 37.0102L5.75046 37.0079L5.73134 36.9856L5.72895 36.9833L5.70863 36.961L5.70624 36.9587L5.68592 36.9364L5.68353 36.9341L5.66441 36.9118L5.66202 36.9095L5.6429 36.8873L5.64051 36.8849L5.62139 36.8615L5.619 36.8592L5.59868 36.8358L5.59629 36.8334L5.57597 36.81L5.57478 36.8077L5.55566 36.7854L5.55326 36.7831L5.53414 36.7597L5.53295 36.7573L5.51383 36.7339L5.51263 36.7316L5.49351 36.7081L5.49112 36.7058L5.472 36.6824L5.46961 36.68L5.45048 36.6566L5.44929 36.6543L5.43136 36.6309L5.43017 36.6285L5.41105 36.6051L5.40866 36.6028L5.39073 36.5785L5.38834 36.5762L5.37041 36.5516L5.36922 36.5493L5.35129 36.5259L5.3489 36.5235L5.33097 36.4989L5.32858 36.4966L5.31066 36.472L5.30827 36.4685L5.29034 36.4451L5.28914 36.4427L5.27122 36.4193L5.26883 36.417L5.2509 36.3924L5.2497 36.3901L5.23178 36.3655L5.22939 36.3631L5.21206 36.3397L5.21086 36.3374L5.19294 36.3128L5.19055 36.3104L5.17262 36.287L5.17142 36.2847L5.1535 36.2601L5.13437 36.232L5.13318 36.2297L5.09733 36.177L5.09529 36.1746L5.07856 36.1501L5.07737 36.1477L5.06064 36.1231L5.05825 36.1208L5.04151 36.0962L5.04032 36.0939L5.02359 36.0693L5.02239 36.0669L5.00566 36.0412L5.00447 36.0388L4.98773 36.0131L4.98654 36.0107L4.971 35.9862L4.96981 35.9838L4.95427 35.9581L4.95307 35.9557L4.93754 35.93L4.93634 35.9276L4.92081 35.903L4.91961 35.9007L4.90407 35.8749L4.90288 35.8726L4.88734 35.8468L4.88495 35.8445L4.87061 35.8199L4.86822 35.8164L4.85268 35.7906L4.85149 35.7883L4.83595 35.7625L4.83476 35.7602L4.81922 35.7344L4.81803 35.7321L4.80249 35.7063L4.80129 35.7028L4.78576 35.6771L4.78337 35.6747L4.76903 35.649L4.76783 35.6466L4.75349 35.6209L4.75229 35.6185L4.73676 35.5928L4.73556 35.5904L4.72122 35.5647L4.72003 35.5623L4.70568 35.5366L4.70449 35.5343L4.69015 35.5085L4.68895 35.5062L4.67461 35.4804L4.67342 35.4769L4.65907 35.4511L4.65788 35.4488L4.64354 35.423L4.64115 35.4195L4.61366 35.3657L4.61247 35.3622L4.59812 35.3352L4.59693 35.3317L4.58378 35.3048L4.58259 35.3013L4.56825 35.2732L4.5551 35.2463L4.5539 35.2439L4.54076 35.217L4.53956 35.2135L4.52642 35.1865L4.52522 35.183L4.51207 35.1561L4.51088 35.1526L4.49773 35.1257L4.49654 35.1233L4.48459 35.0964L4.48339 35.0929L4.47025 35.066L4.46905 35.0624L4.4559 35.0355L4.45351 35.032L4.44156 35.0051L4.44037 35.0016L4.42842 34.9746L4.42722 34.9711L4.41527 34.9442L4.41407 34.9419L4.40212 34.9149L4.40093 34.9126L4.38898 34.8857L4.38778 34.8822L4.37583 34.8541L4.37464 34.8517L4.36268 34.8248L4.36149 34.8213L4.35073 34.7943L4.34954 34.792L4.33759 34.7651L4.33639 34.7627L4.32444 34.7358L4.32325 34.7323L4.31129 34.7042L4.3101 34.7019L4.29934 34.6738L4.29815 34.6702L4.28739 34.6433L4.2862 34.6398L4.27544 34.6129L4.27425 34.6094L4.26349 34.5813L4.26229 34.5789L4.25154 34.5508L4.25034 34.5473L4.23959 34.5192L4.23839 34.5157L4.22764 34.4876L4.22644 34.4853L4.21568 34.4572L4.21449 34.4548L4.20373 34.4267L4.19298 34.3951L4.19178 34.3928L4.18103 34.3612L4.17027 34.3331L4.10573 34.1434V34.1399L4.09617 34.1106V34.1071L4.07586 34.0474L4.07466 34.0451L4.0639 34.0135L4.05554 33.9854L4.05434 33.983L4.04598 33.9549L4.04478 33.9514L4.03642 33.9233L4.03522 33.9198L4.02686 33.8917L4.02566 33.8882L4.01729 33.8601L4.0161 33.8578L4.00773 33.8285L4.00654 33.825L3.99937 33.7957L3.99817 33.7922L3.991 33.7629L3.98981 33.7606L3.98144 33.7325L3.98025 33.729L3.97307 33.6997V33.6962L3.9659 33.6669V33.6634L3.95873 33.6342L3.95754 33.6306L3.95037 33.6014L3.94917 33.5979L3.942 33.5686L3.94081 33.5651L3.93364 33.5358L3.93244 33.5335L3.92527 33.5042V33.5007L3.9181 33.4714L3.9169 33.4679L3.90973 33.4386L3.90854 33.4351L3.90137 33.4059L3.90017 33.4023L3.893 33.3731L3.89181 33.3707L3.88583 33.3415L3.88464 33.338L3.87866 33.3087V33.3052L3.87268 33.2759L3.87149 33.2736L3.86551 33.2443L3.86432 33.2408L3.85237 33.1823L3.85117 33.1787L3.8452 33.1495L3.844 33.146L3.83803 33.1167V33.1132L3.83205 33.0827V33.0792L3.82727 33.0488L3.82607 33.0453L3.82129 33.016V33.0125L3.81651 32.9832L3.81532 32.9797L3.81054 32.9504L3.80934 32.9481L3.80456 32.9188V32.9153L3.79978 32.8849V32.8825L3.79022 32.824L3.78903 32.8205L3.78544 32.7912V32.7877L3.78066 32.7573L3.77947 32.7538L3.77468 32.7233L3.7711 32.6929L3.7699 32.6894L3.76632 32.6601V32.6578L3.76154 32.6285L3.75795 32.5992V32.5957L3.75437 32.5664V32.5629L3.75078 32.5337L3.74959 32.5313L3.746 32.5021V32.4985L3.74242 32.4693V32.4658L3.73883 32.4353V32.4318L3.73644 32.4014V32.3981L3.73405 32.3677V32.3653L3.73047 32.3349L3.72927 32.3314L3.72688 32.3009L3.72568 32.2986L3.72449 32.2681V32.2646L3.7221 32.2342V32.2307L3.71971 32.2002V32.1979L3.71732 32.1675V32.1639L3.71493 32.1335V32.13L3.71373 32.0996V32.096L3.71134 32.0656V32.0621L3.70895 32.0012V31.9985L3.70776 31.9681L3.70656 31.9646V31.9306L3.70537 31.9002V31.8978L3.70417 31.8674V31.8639L3.70298 31.8335V31.8299L3.70178 31.7995V17.5435L3.70298 17.5084V17.5049L3.70417 17.47V17.4668L3.70537 17.4317V17.4285L3.70656 17.3939V17.3907L3.70776 17.3556V17.3524L3.70895 17.3173V17.314L3.71015 17.2791V17.276L3.71134 17.2411V17.2376L3.71254 17.2028V17.1993L3.71493 17.1645V17.1614L3.71612 17.1262V17.1233L3.71732 17.0894V17.087L3.71851 17.0531V17.0507L3.71971 17.0168V17.0133L3.7221 16.9782V16.9758L3.72449 16.9407V16.9383L3.72688 16.9032V16.8997L3.72927 16.8658V16.8622L3.73286 16.8283L3.73405 16.8248L3.73644 16.7897V16.7873L3.74003 16.7534V16.7499L3.74361 16.7159V16.7099L3.7472 16.6753V16.6722L3.75078 16.6377V16.6342L3.75556 16.5995V16.596L3.76034 16.5609V16.558L3.76393 16.5238L3.76512 16.5203L3.76871 16.4863L3.7699 16.4836L3.77468 16.4497V16.4462L3.77947 16.4122L3.78066 16.4091L3.78544 16.3743L3.78664 16.3711L3.79142 16.3372V16.3337L3.7962 16.2997V16.2962L3.80098 16.2622V16.2587L3.80576 16.2244V16.2212L3.81173 16.1872V16.1837L3.81771 16.1497L3.8189 16.1474L3.82488 16.1134L3.82607 16.1099L3.83205 16.076V16.0725L3.83803 16.0385V16.035L3.844 16.0011V15.998L3.84998 15.9641L3.85117 15.9606L3.85715 15.9266V15.9231L3.86312 15.8891L3.86432 15.8856L3.87029 15.8517L3.87149 15.8482L3.87747 15.8142L3.87866 15.8107L3.88464 15.7767V15.7734L3.89061 15.7394L3.89181 15.7371L3.89898 15.7031V15.6996L3.90615 15.6656L3.90734 15.6621L3.91451 15.6282L3.91571 15.6247L3.92288 15.5907V15.5872L3.93005 15.5544L3.93125 15.5509L3.93842 15.517L3.93961 15.5134L3.94798 15.4795V15.476L3.95634 15.442V15.4385L3.96471 15.4057L3.9659 15.4022L3.97427 15.3683L3.97547 15.3659L3.98383 15.3332V15.3308L3.9922 15.2969L3.99339 15.2934L4.00176 15.2594L4.00295 15.2559L4.01132 15.2219V15.2184L4.01968 15.1845L4.02088 15.181L4.03044 15.147V15.1435L4.04 15.1107L4.0412 15.1084L4.05076 15.0756L4.05195 15.0721L4.06151 15.0393V15.037L4.07107 15.0042L4.07227 15.0007L4.08183 14.9679L4.08303 14.9644L4.09259 14.9316L4.09378 14.9293L4.10334 14.8965L4.10454 14.893L4.1141 14.8602L4.11529 14.8578L4.12605 14.8251L4.12725 14.8215L4.13681 14.7888V14.7853L4.14756 14.7525L4.14876 14.7501L4.15951 14.7174V14.715L4.17027 14.6822L4.17146 14.6799L4.18222 14.6471L4.18342 14.6448L4.19417 14.612L4.20612 14.5769L4.20732 14.5745L4.21807 14.5429L4.21927 14.5406L4.23122 14.509L4.23242 14.5054L4.24437 14.4727L4.24556 14.4692L4.25751 14.4375L4.25871 14.434L4.27066 14.4013L4.27186 14.3989L4.28381 14.3661L4.285 14.3626L4.29695 14.3298L4.29815 14.3263L4.3101 14.2947L4.31129 14.2924L4.32325 14.2596L4.32444 14.2573L4.33639 14.2245L4.33759 14.2221L4.35073 14.1905L4.35193 14.187L4.36507 14.1554L4.36627 14.1519L4.37942 14.1203L4.38061 14.1168L4.39376 14.0852L4.39495 14.0816L4.4081 14.05L4.40929 14.0465L4.42244 14.0149L4.42364 14.0126L4.43678 13.981L4.43798 13.9774L4.45112 13.9458L4.45232 13.9423L4.46666 13.9107L4.46786 13.9084L4.481 13.8779L4.4822 13.8756L4.49654 13.8452L4.49773 13.8416L4.51088 13.8112L4.51207 13.8077L4.52642 13.7761L4.52761 13.7737L4.54195 13.7433L4.54315 13.7398L4.55749 13.7094L4.55988 13.707L4.57422 13.6766L4.57542 13.6742L4.58976 13.6438L4.59095 13.6403L4.60529 13.6098L4.60649 13.6075L4.62083 13.5759L4.62203 13.5735L4.63756 13.5419L4.65429 13.5092L4.65549 13.5056L4.66983 13.4752L4.67103 13.4729L4.68537 13.4424L4.68656 13.4389L4.73556 13.3429L4.73795 13.3406L4.75468 13.3101L4.75707 13.3078L4.77381 13.275L4.79054 13.2446L4.79173 13.2411L4.824 13.1778L4.82639 13.1743L4.84193 13.1451L4.85866 13.1123L4.85986 13.1088L4.87659 13.0783L4.87778 13.0748L4.89451 13.0455L4.89571 13.0432L4.91244 13.0139L4.91364 13.0104L4.93156 12.98L4.93276 12.9776L4.94949 12.9484L4.95068 12.946L4.96861 12.9168L4.96981 12.9133L4.98773 12.8828L4.98893 12.8805L5.00686 12.8512L5.00805 12.8477L5.02598 12.8184L5.02717 12.8161L5.0451 12.7868L5.04749 12.7845L5.06542 12.7552L5.06661 12.7529L5.08454 12.7236L5.08693 12.7201L5.10486 12.6908L5.10605 12.6885L5.12398 12.6592L5.12517 12.6569L5.1431 12.6276L5.14549 12.6253L5.16342 12.5972L5.16581 12.5948L5.18493 12.5655L5.18612 12.5632L5.20405 12.5339L5.20525 12.5316L5.22437 12.5023L5.22616 12.5L5.24409 12.4707L5.24648 12.4684L5.2656 12.4403L5.26679 12.4379L5.28592 12.4098L5.28831 12.4075L5.30743 12.3794L5.30982 12.3771L5.32894 12.349L5.33014 12.3466L5.34926 12.3185L5.35165 12.3162L5.37077 12.2881L5.37197 12.2857L5.39109 12.2576L5.39228 12.2553L5.4114 12.2272L5.4126 12.2249L5.43292 12.1968L5.43531 12.1944L5.45443 12.1663L5.45562 12.164L5.47594 12.1371L5.47714 12.1347L5.49745 12.1078L5.49865 12.1054L5.51897 12.0774L5.52016 12.075L5.54048 12.0481L5.54167 12.0457L5.56199 12.0176L5.56438 12.0153L5.5847 11.9884L5.58709 11.986L5.6074 11.9591L5.60979 11.9568L5.63131 11.9298L5.6325 11.9275L5.65282 11.9006L5.65401 11.8982L5.67433 11.8713L5.67672 11.869L5.69823 11.842L5.70062 11.8397L5.72094 11.8128L5.72333 11.8104L5.74484 11.7835L5.74604 11.7812L5.76755 11.7542L5.76994 11.7519L5.79145 11.725L5.79384 11.7226L5.81655 11.6957L5.81894 11.6934L5.84045 11.6664L5.84165 11.6641L5.86316 11.6383L5.86555 11.636L5.88706 11.6091L5.88945 11.6067L5.91096 11.5798L5.91216 11.5774L5.93487 11.5505L5.93726 11.5482L5.95877 11.5224L5.96116 11.5201L5.98387 11.4943L5.98626 11.492L6.00897 11.4662L6.01136 11.4639L6.03406 11.4381L6.03526 11.4358L6.05796 11.41L6.06036 11.4077L6.08306 11.3819L6.08545 11.3796L6.10816 11.3538L6.11055 11.3515L6.13326 11.3257L6.13445 11.3234L6.15716 11.2976L6.15955 11.2953L6.18226 11.2707L6.18465 11.2684L6.20855 11.2426L6.21094 11.2403L6.23365 11.2145L6.23604 11.2122L6.25994 11.1864L6.26233 11.1841L6.28623 11.1583L6.28743 11.156L6.31492 11.1291L6.33882 11.1045L6.34121 11.1021L6.36511 11.0775L6.3675 11.0752L6.3914 11.0506L6.47626 10.9675L6.50135 10.9441L6.50375 10.9417L6.52765 10.9172L6.52884 10.9148L6.55633 10.8879L6.58143 10.8645L6.58382 10.8621L6.60892 10.8387L6.61131 10.8364L6.6364 10.813L6.63879 10.8106L6.66389 10.7872L6.66628 10.7849L6.69257 10.7614L6.69497 10.7591L6.72006 10.7357L6.72245 10.7334L6.74755 10.7099L6.74994 10.7076L6.77623 10.6842L6.77862 10.6818L6.80492 10.6584L6.80731 10.6561L6.8336 10.6327L6.83599 10.6303L6.86228 10.6069L6.86467 10.6046L6.89096 10.5823L6.89336 10.58L6.91965 10.5577L6.92204 10.5554L6.94833 10.5332L6.95072 10.5308L6.97701 10.5086L6.9794 10.5062L7.0057 10.484L7.00809 10.4816L7.03557 10.4594L7.03797 10.4571L7.06426 10.4348L7.06665 10.4325L7.09294 10.4091L7.09533 10.4067L7.12282 10.3845L7.12521 10.3821L7.1527 10.3599L7.15509 10.3587L7.18257 10.3376L7.18496 10.3353L7.21245 10.3131L7.21484 10.3107L7.24233 10.2885L7.24472 10.2861L7.27221 10.2639L7.2746 10.2615L7.30209 10.2393L7.30448 10.237L7.33196 10.2159L7.33436 10.2147L7.36184 10.1936L7.36423 10.1913L7.39292 10.1702L7.39531 10.1679L7.42363 10.1468L7.42602 10.1445L7.4547 10.1234L7.45829 10.1211L7.48697 10.1L7.48936 10.0976L7.51805 10.0766L7.52044 10.0742L7.54912 10.0532L7.55151 10.0508L7.58019 10.0297L7.58378 10.0286L7.61246 10.0075L7.61485 10.0063L7.64353 9.98525L7.64592 9.98291L7.67461 9.96301L7.677 9.96067L7.70687 9.94077L7.71046 9.9396L7.73914 9.91969L7.74153 9.91735L7.77022 9.89745L7.77261 9.89628L7.80129 9.87638L7.80368 9.87403L7.83236 9.85413L7.83475 9.85179L7.86344 9.83189L7.86583 9.83072L7.8957 9.81081L7.89809 9.80964L7.92678 9.78974L7.92917 9.78857L7.95785 9.76867L7.96024 9.7675L7.99012 9.74759L7.99251 9.74525L8.02239 9.72535L8.02597 9.72418L8.05585 9.70545L8.05944 9.70311L8.08931 9.68437L8.0929 9.6832L8.12278 9.66447L8.12636 9.6633L8.15624 9.64457L8.15863 9.64223L8.1897 9.6235L8.19329 9.62233L8.22317 9.60359L8.22556 9.60125L8.25544 9.58369L8.25663 9.58252L19.7482 2.64008L19.7494 2.63891L19.7757 2.62369L19.7781 2.62135L19.8044 2.60613L19.808 2.60496L19.8343 2.58857L19.8366 2.5874L19.8641 2.57218L19.8677 2.57101L19.894 2.55579L19.8976 2.55345L19.9239 2.53823L19.9263 2.53589L19.9538 2.52067L19.9562 2.5195L19.9825 2.50428L19.986 2.50194L20.0123 2.48672L20.0147 2.48555L20.0422 2.47033L20.0458 2.46916L20.0721 2.45394L20.0745 2.45159L20.1012 2.43755L20.1048 2.43637L20.1311 2.42233L20.1347 2.42116L20.1622 2.40711L20.1658 2.40477L20.1933 2.39072L20.1957 2.38955L20.2231 2.3755L20.2255 2.37433L20.253 2.36028L20.2554 2.35794L20.2829 2.34506L20.2865 2.34272L20.314 2.32867L20.3164 2.3275L20.3439 2.31462L20.3462 2.31228L20.3725 2.2994L20.3761 2.29706L20.4036 2.28418L20.4072 2.28301L20.4347 2.26896L20.4383 2.26779L20.4658 2.25491L20.4693 2.25374L20.4968 2.24086L20.5004 2.23969L20.5279 2.22681L20.5315 2.22564L20.559 2.21276L20.5614 2.21159L20.5889 2.19872L20.5924 2.19755L20.6199 2.18467L20.6235 2.1835L20.651 2.17179L20.6546 2.17062L20.6821 2.15774L20.6857 2.15657L20.7131 2.14486L20.7167 2.14369L20.7442 2.13198L20.7478 2.13081L20.7753 2.11911L20.7789 2.11794L20.8064 2.10623L20.8088 2.10506L20.8362 2.09335L20.8386 2.09218L20.8673 2.08047L20.8709 2.0793L20.8984 2.06759L20.902 2.06642L20.9295 2.05589L20.9331 2.05472L20.9617 2.04301L20.9653 2.04184L20.9928 2.03013L20.9964 2.02896L21.0251 2.01842L21.0287 2.01725L21.0573 2.00672L21.0609 2.00555L21.0884 1.99501L21.092 1.99384L21.1207 1.9833L21.1237 1.98213L21.1512 1.97159L21.1535 1.97042L21.1822 1.95989L21.1858 1.95872L21.2145 1.94818L21.2181 1.94701L21.2468 1.93647H21.2504L21.3436 1.90603L21.346 1.90486L21.4392 1.87442L21.4416 1.87325L21.4738 1.86272L21.5025 1.85452L21.5049 1.85335L21.5336 1.84398L21.536 1.84281L21.5647 1.83462L21.5683 1.83345L21.5969 1.82525L21.6328 1.81355L21.6615 1.80535H21.6639L21.6926 1.79716L21.6961 1.79598L21.7248 1.78779H21.7284L21.7571 1.77959H21.7607L21.7894 1.7714L21.7929 1.77023L21.8216 1.76203L21.824 1.76086L21.8527 1.75267L21.8563 1.7515L21.885 1.7433L21.8885 1.74213L21.9172 1.73511L21.9208 1.73394L21.9495 1.72574L21.9531 1.72457L21.9818 1.71755L21.9854 1.71637L22.014 1.70935H22.0176L22.0463 1.70233L22.0499 1.70162L22.0786 1.6946L22.0822 1.69343L22.1108 1.6864L22.1144 1.68523L22.1443 1.67821L22.1467 1.67704L22.1766 1.67001L22.1802 1.66884L22.2088 1.6624L22.2124 1.66123L22.2411 1.65421L22.2447 1.65304L22.2734 1.64718L22.277 1.64601L22.3056 1.64016L22.308 1.63899L22.3379 1.63314H22.3415L22.3714 1.62728H22.375L22.4048 1.62143H22.4084L22.4371 1.61557L22.4407 1.6144L22.4694 1.60972L22.473 1.60855L22.5028 1.60387L22.5064 1.6027L22.5351 1.59801H22.5375L22.5662 1.59216L22.5698 1.59099L22.5985 1.58631H22.602L22.6319 1.58162L22.6355 1.58045L22.6642 1.57577L22.6678 1.5746L22.6976 1.56992L22.7012 1.56875L22.7311 1.56523H22.7347L22.7646 1.56172H22.7682L22.7968 1.55704H22.8004L22.8291 1.55353H22.8327L22.8626 1.54884H22.8662L22.8948 1.54533H22.8984L22.9271 1.54182H22.9307L22.9594 1.53831H22.963L22.9916 1.53479H22.9952L23.0239 1.53128H23.0275L23.0574 1.52777H23.061L23.0908 1.52426H23.0944L23.1231 1.52075H23.1267L23.1566 1.5184H23.1602L23.19 1.51606H23.1936L23.2235 1.51372H23.2271L23.257 1.51138H23.2605L23.2904 1.50904H23.294L23.3239 1.5067H23.3275L23.3562 1.50436H23.3597L23.3896 1.50201H23.3932L23.4231 1.49967H23.4267L23.4566 1.4985H23.4601L23.49 1.49733H23.4936L23.5235 1.49499H23.5271L23.5569 1.49382H23.5617L23.5916 1.49265H23.5952L23.6251 1.49148H23.6286L23.6585 1.49031H23.6621L23.692 1.48914H23.931L23.9359 1.49862ZM23.9084 4.65959H23.8889L23.8695 4.65983H23.7306L23.711 4.661H23.6915L23.6717 4.66217L23.631 4.66451L23.6119 4.66568L23.4494 4.67505L23.4303 4.67622L23.3896 4.6809L23.3705 4.68324L23.3514 4.68441L23.3311 4.68676L23.3119 4.6891L23.251 4.69612L23.2127 4.7008L23.1924 4.70315L23.1733 4.70549L23.153 4.709L23.1339 4.71134L23.0956 4.71837L23.0765 4.72071L22.9618 4.74178L22.9415 4.74529L22.9223 4.7488L22.9032 4.75349L22.8841 4.757L22.865 4.76168L22.8458 4.76519L22.8255 4.76988L22.8064 4.77456L22.7873 4.77807L22.6534 4.81085L22.6355 4.81554L22.5973 4.8249L22.4825 4.86002L22.4646 4.86588L22.4455 4.87173L22.4275 4.87758L22.3511 4.901L22.3152 4.91505L22.277 4.92676L22.259 4.93378L22.2399 4.9408L22.222 4.94666L22.2029 4.95368L22.167 4.96773L22.1479 4.97593L22.13 4.98295L22.1108 4.98997L22.0929 4.997L22.0738 5.00402L22.0547 5.01222L22.0355 5.01924L21.8563 5.10119L21.8204 5.11993L21.8025 5.12812L21.5515 5.25924L21.5336 5.26978L21.5157 5.27915L21.4977 5.28968L21.481 5.30022L21.4631 5.31076L21.444 5.32246L9.95657 12.2615L9.93387 12.2756L9.91116 12.2884L9.88965 12.3025L9.86813 12.3154L9.69604 12.4278L9.67452 12.443L9.65421 12.457L9.63269 12.4722L9.61238 12.4863L9.59206 12.5015L9.57055 12.5156L9.55023 12.5296L9.50721 12.56L9.34467 12.6818L9.32435 12.6976L9.30523 12.7135L9.28611 12.7287L9.26579 12.744L9.24547 12.7604L9.22516 12.7756L9.0913 12.8903L9.07218 12.9079L9.01482 12.957L8.99689 12.9746L8.95865 13.0074L8.94072 13.0238L8.90247 13.0589L8.88335 13.0753L8.86543 13.0917L8.68616 13.2673L8.66943 13.286L8.65269 13.3036L8.61684 13.341L8.60011 13.3598L8.58338 13.3773L8.44952 13.5272L8.43399 13.5459L8.41726 13.5646L8.40172 13.5846L8.35511 13.6407L8.33838 13.6606L8.3073 13.6981L8.22962 13.7976L8.21409 13.8164L8.19855 13.8363L8.16987 13.8761L8.15433 13.896L8.13999 13.9159L8.12565 13.9369L8.05394 14.0365L7.96789 14.1629L7.95474 14.184L7.9404 14.2039L7.92606 14.2249L7.91291 14.2448L7.7946 14.4345L7.78265 14.4567L7.7695 14.4778L7.75635 14.5001L7.73245 14.5446L7.7193 14.5656L7.70735 14.5867L7.6954 14.6089L7.6715 14.6511L7.6476 14.6956L7.63684 14.7178L7.61294 14.7623L7.60218 14.7846L7.59143 14.8056L7.58067 14.8279L7.56872 14.8501L7.51494 14.9613L7.50538 14.9847L7.48386 15.0292L7.4743 15.0515L7.45518 15.0983L7.44562 15.1206L7.43606 15.144L7.4253 15.1674L7.40618 15.2119L7.39662 15.2353L7.38706 15.2575L7.34882 15.3512L7.34045 15.3746L7.33089 15.398L7.2305 15.679L7.21616 15.7258L7.20803 15.7504L7.19369 15.7972L7.18652 15.8218L7.16501 15.8921L7.15831 15.9166L7.14397 15.9658L7.138 15.9892L7.13083 16.0126L7.12413 16.0372L7.11696 16.0618L7.10501 16.111L7.09904 16.1344L7.07513 16.2327L7.06999 16.2573L7.04609 16.3803L7.04012 16.4048L7.02099 16.5032L7.01741 16.5278L7.00785 16.5769L7.00426 16.6015L6.99948 16.6261L6.9959 16.6507L6.99112 16.6753L6.98395 16.7268L6.96243 16.8743L6.95957 16.9001L6.95717 16.9246L6.95359 16.9504L6.94881 16.9996L6.94642 17.0253L6.94403 17.0499L6.94164 17.0757L6.93925 17.1003L6.93686 17.126L6.93208 17.1752L6.9273 17.2267L6.9261 17.2525L6.92491 17.277L6.92013 17.3801V17.4058L6.91654 17.4796V17.5053L6.91582 17.5311V31.7286L6.91702 31.7496V31.7906L6.91821 31.8117V31.8527L6.91941 31.8726L6.9206 31.8936L6.9218 31.9135L6.92419 31.9557L6.92538 31.9756L6.92777 32.0177L6.93016 32.0376L6.93136 32.0587L6.93256 32.0786L6.93734 32.1184L6.93853 32.1383L6.94809 32.2179L6.95048 32.239L6.96243 32.3385L6.9696 32.3783L6.97199 32.3982L6.97916 32.438L6.98156 32.4591L7.01024 32.6183L7.01418 32.6382L7.01896 32.6581L7.02255 32.678L7.03211 32.7178L7.03629 32.7377L7.06019 32.8372L7.06498 32.856L7.06976 32.8759L7.07513 32.8958L7.07991 32.9157L7.08589 32.9356L7.09067 32.9543L7.09665 32.9742L7.10262 32.9929L7.108 33.0128L7.11995 33.0503L7.12473 33.0702L7.13071 33.0901L7.13668 33.1088L7.14863 33.1486L7.15461 33.1674L7.16178 33.1861L7.16776 33.206L7.18568 33.2622L7.19285 33.2821L7.23588 33.3945L7.24305 33.4144L7.26456 33.4706L7.27173 33.4905L7.27986 33.5092L7.28763 33.528L7.32946 33.6216L7.33663 33.6404L7.38682 33.7527L7.39519 33.7703L7.40355 33.789L7.42028 33.8242L7.42985 33.8417L7.44897 33.8792L7.45853 33.8967L7.46689 33.9143L7.5625 34.0899L7.57326 34.1075L7.58282 34.125L7.61509 34.1777L7.62585 34.1941L7.6366 34.2117L7.64736 34.2281L7.70114 34.3159L7.71309 34.3323L7.7346 34.3674L7.74596 34.3838L7.75671 34.4002L7.76866 34.4166L7.77942 34.4341L7.79017 34.4505L7.80213 34.4669L7.81336 34.4845L7.82531 34.5008L7.83607 34.5172L7.84802 34.5336L7.85878 34.55L7.90658 34.6156L7.91901 34.632L7.93096 34.6484L7.94411 34.6647L7.95606 34.68L7.97996 34.7127L8.00625 34.7455L8.0194 34.7607L8.05884 34.8099L8.08513 34.8404L8.09708 34.8567L8.11142 34.872L8.17716 34.9481L8.22018 34.9937L8.23452 35.0078L8.2632 35.0382L8.27635 35.0534L8.30503 35.0815L8.33372 35.112L8.39108 35.1682L8.40542 35.1834L8.44964 35.2267L8.46518 35.2407L8.47952 35.2548L8.51059 35.2829L8.52494 35.2969L8.54047 35.311L8.55601 35.3239L8.57155 35.3379L8.58708 35.3508L8.61816 35.3789L8.64923 35.4047L8.66476 35.4187L8.6803 35.4316L8.71137 35.4597L8.72691 35.4726L8.76038 35.4983L8.77591 35.5112L8.90977 35.6142L8.9253 35.6259L8.94203 35.6376L8.95877 35.6505L9.00896 35.6856L9.02569 35.6985L9.07589 35.7336L9.09262 35.7465L9.12608 35.7699L9.16194 35.7933L9.21213 35.8285L9.23006 35.839L9.24798 35.8507L9.26472 35.8624L9.28264 35.8741L9.30057 35.8847L9.33642 35.9081L9.3902 35.9397L9.40813 35.9514L9.42606 35.9619L9.44518 35.9736L21.9569 43.1373L21.9724 43.1455L22.0011 43.1619L22.0155 43.1689L22.0286 43.1771L22.0549 43.1912L22.0693 43.1994L22.184 43.2556L22.1983 43.2614L22.2127 43.2685L22.227 43.2743L22.27 43.2954L22.2844 43.3012L22.2987 43.3083L22.3274 43.32L22.3417 43.327L22.3704 43.3387L22.3848 43.3457L22.4995 43.3926L22.515 43.3984L22.5294 43.4031L22.5449 43.4089L22.5736 43.4183L22.5879 43.4242L22.6166 43.4335L22.631 43.4394L22.6596 43.4487L22.6752 43.4534L22.6895 43.4581L22.7027 43.4628L22.7337 43.4722L22.7935 43.4909L22.8831 43.5155L22.913 43.5225L22.9429 43.5307L23.0624 43.5588L23.0923 43.5646L23.1234 43.5705L23.213 43.5881L23.2429 43.5928L23.3672 43.6115L23.3982 43.615L23.4281 43.6185L23.4903 43.6255L23.5213 43.6279L23.5512 43.6302L23.5823 43.6337L23.6444 43.6384L23.6743 43.6408L23.7341 43.6431L23.8273 43.6466H23.9205L23.9516 43.6454H23.9826L24.0448 43.6431L24.0747 43.6419L24.2611 43.6279L24.2922 43.6244L24.3221 43.6208L24.3531 43.6173L24.383 43.6138L24.4452 43.6068L24.475 43.6021L24.5061 43.5974L24.536 43.5928L24.5957 43.581L24.6256 43.5764L24.6567 43.5705L24.7164 43.5588L24.7475 43.5518L24.7774 43.5448L24.8085 43.5377L24.8384 43.5307L24.9579 43.4979L24.9877 43.4886L25.0188 43.4792L25.032 43.4757L25.0475 43.471L25.0905 43.4569L25.1061 43.4523L25.1491 43.4382L25.1646 43.4324L25.179 43.4265L25.1933 43.4218L25.2088 43.4171L25.2519 43.4031L25.2805 43.3914L25.2949 43.3867L25.3666 43.3574L25.3821 43.3516L25.4108 43.3399L25.4252 43.3328L25.4825 43.3094L25.5112 43.2954L25.5686 43.272L25.5829 43.2649L25.5961 43.2579L25.6391 43.2368L25.6522 43.2298L25.6809 43.2158L25.6953 43.2076L25.7084 43.2006L25.7227 43.1935L25.7359 43.1853L25.7502 43.1771L25.7658 43.1689L39.6196 35.6107L39.6363 35.6025L39.665 35.5861L39.6806 35.5779L39.6949 35.5697L39.7236 35.551L39.7666 35.5264L39.781 35.517L39.7953 35.5088L39.8096 35.4995L39.824 35.4913L39.8527 35.4726L39.8658 35.4632L39.9232 35.4257L39.9495 35.407L39.9925 35.3789L40.0714 35.3227L40.0845 35.3122L40.1371 35.2747L40.1897 35.2326L40.2028 35.2232L40.2291 35.2021L40.2411 35.1927L40.265 35.1717L40.2781 35.1611L40.3498 35.0979L40.3618 35.0862L40.3737 35.0757L40.3857 35.064L40.4215 35.0324L40.4454 35.0089L40.4574 34.9984L40.516 34.941L40.5482 34.9059L40.5602 34.8942L40.6355 34.8123L40.6474 34.8006L40.7442 34.6952L40.7538 34.6823L40.7645 34.6694L40.7741 34.6577L40.7849 34.6448L40.8996 34.4903L40.9092 34.4763L40.957 34.4119L40.9665 34.3978L41.0048 34.3463L41.0131 34.3323L41.0215 34.3194L41.0299 34.3053L41.0382 34.2925L41.055 34.2644L41.0645 34.2503L41.0729 34.2363L41.0813 34.2234L41.1147 34.1672L41.1219 34.1531L41.1888 34.0407L41.196 34.0267L41.2127 33.9986L41.2557 33.9143L41.2629 33.8991L41.2701 33.885L41.2761 33.8698L41.2832 33.8558L41.2904 33.8406L41.2964 33.8265L41.3035 33.8125L41.3095 33.7984L41.3167 33.7844L41.3239 33.7691L41.3298 33.7551L41.3442 33.7247L41.3741 33.6486L41.3812 33.6333L41.3872 33.6181L41.3932 33.6041L41.4171 33.5432L41.4231 33.5291L41.4278 33.5139L41.4338 33.4999L41.4458 33.4694L41.4601 33.4238L41.4661 33.4086L41.4709 33.3933L41.4768 33.3781L41.4816 33.3641L41.5055 33.288L41.5103 33.2716L41.5199 33.2411L41.5234 33.2259L41.5282 33.2107L41.5318 33.1955L41.5366 33.1803L41.5402 33.1639L41.545 33.1486L41.5629 33.0726L41.5665 33.0562L41.5808 32.9953L41.5916 32.9461L41.594 32.9297L41.6047 32.8841L41.6083 32.8677L41.6226 32.7693L41.625 32.7541L41.6346 32.6886L41.6358 32.6733L41.637 32.6569L41.6394 32.6406L41.6418 32.6253L41.6442 32.6089L41.6489 32.5434L41.6513 32.527L41.6525 32.5106L41.6537 32.4954L41.6597 32.4134V32.397L41.6645 32.3315V32.2343L41.6657 32.2156V16.1953L41.6645 16.1789V16.1195L41.6633 16.1043L41.6609 16.075V16.0452L41.6597 16.0302V16.0007L41.6585 15.9878L41.6561 15.9565L41.6513 15.8979L41.6477 15.8682L41.6454 15.8389L41.6418 15.8096L41.6382 15.7806L41.6346 15.7513L41.6274 15.6933L41.6179 15.6352L41.6131 15.6059L41.6083 15.5773L41.6035 15.5492L41.5975 15.5211L41.5928 15.493L41.5748 15.4087L41.5318 15.2401L41.5151 15.1862L41.4983 15.13L41.4888 15.1031L41.4804 15.0762L41.4709 15.0481L41.4422 14.9673L41.3884 14.8327L41.3776 14.8069L41.3657 14.78L41.3298 14.7027L41.3167 14.677L41.3047 14.6512L41.2522 14.5482L41.2378 14.5236L41.2235 14.4978L41.2103 14.4721L41.1673 14.3983L41.1518 14.3737L41.1374 14.3492L41.1063 14.3L41.0908 14.2766L41.0741 14.2532L41.0573 14.2286L41.0263 14.1817L40.9928 14.1349L40.9749 14.1115L40.9582 14.0881L40.9402 14.0658L40.9223 14.0424L40.9044 14.0202L40.8864 13.9968L40.8482 13.9523L40.8303 13.93L40.792 13.8855L40.7729 13.8645L40.7526 13.8434L40.712 13.7989L40.651 13.7357L40.6295 13.7146L40.608 13.6947L40.5877 13.6736L40.4801 13.5741L40.4574 13.5542L40.4144 13.5144L40.3235 13.4395L40.2996 13.4208L40.2769 13.402L40.2542 13.3845L40.1586 13.3142L40.1084 13.2814L40.0845 13.2651L40.0594 13.2487L40.0331 13.2311L40.0092 13.2147L39.9829 13.1983L39.971 13.1901L39.9315 13.1655L39.9053 13.1515L39.8921 13.1433L39.8802 13.1351L39.867 13.1269L39.8515 13.1187L26.2988 5.2994L26.2797 5.28886L26.2617 5.27833L26.2259 5.25959L26.1924 5.24086L26.0669 5.1753L25.9952 5.14252L25.9773 5.13316L25.9594 5.12496L25.9414 5.11559L25.9235 5.1074L25.9056 5.09803L25.798 5.04886L25.7789 5.04067L25.7431 5.02428L25.7239 5.01608L25.706 5.00789L25.6881 5.00086L25.6702 4.99267L25.5267 4.93647L25.4885 4.92242L25.4706 4.91657L25.4514 4.90955L25.4335 4.90252L25.3953 4.89081L25.3762 4.88379L25.357 4.87794L25.3212 4.86623L25.3021 4.86037L25.2841 4.85452L25.2268 4.83696L25.1312 4.81355L25.112 4.80769L25.0355 4.78896L25.0164 4.78545L24.9208 4.76203L24.9017 4.75852L24.8634 4.74916L24.8431 4.74564L24.6902 4.71755L24.6495 4.71052L24.6304 4.70701L24.5922 4.70233L24.573 4.69881L24.5539 4.69647L24.5348 4.69296L24.5145 4.69062L24.438 4.68125L24.4189 4.68008L24.3985 4.67774L24.3794 4.6754L24.3591 4.67423L24.34 4.67189L24.3197 4.67072L24.2814 4.66837L24.2611 4.6672L24.242 4.66486L24.1846 4.66135L24.1643 4.66018L24.1452 4.65901H24.1261L24.1057 4.65784H24.0579L24.0197 4.6555L23.9994 4.65433H23.9217L23.9084 4.65959Z" fill="#0083C0"/>
<mask id="mask0_15_274" style="mask-type:luminance" maskUnits="userSpaceOnUse" x="7" y="14" width="35" height="20">
<path d="M7.33374 14.9971H41.1437V33.8131H7.33374V14.9971Z" fill="white"/>
</mask>
<g mask="url(#mask0_15_274)">
<path fill-rule="evenodd" clip-rule="evenodd" d="M24.24 14.9971C19.732 14.9971 16.9145 17.0878 15.7875 21.2693C17.478 19.1786 19.4503 18.3945 21.7043 18.9173C22.9903 19.2152 23.9094 20.0811 24.9269 21.0387C26.5842 22.5992 28.5026 24.4054 32.6926 24.4054C37.2006 24.4054 40.0181 22.3147 41.1451 18.1332C39.4546 20.2239 37.4823 21.008 35.2283 20.4852C33.9422 20.1873 33.0232 19.3214 32.0056 18.3637C30.3483 16.8033 28.4299 14.9971 24.24 14.9971ZM15.7875 24.4053C11.2795 24.4053 8.46196 26.496 7.33496 30.6775C9.02546 28.5868 10.9978 27.8028 13.2518 28.3255C14.5378 28.624 15.4569 29.4893 16.4744 30.447C18.1317 32.0075 20.0501 33.8137 24.2401 33.8137C28.7481 33.8137 31.5656 31.723 32.6926 27.5415C31.0021 29.6322 29.0298 30.4162 26.7758 29.8935C25.4897 29.5955 24.5707 28.7296 23.5531 27.772C21.8958 26.2115 19.9774 24.4053 15.7875 24.4053Z" fill="white"/>
</g>
</svg>
