<svg width="26" height="25" viewBox="0 0 26 25" fill="none" xmlns="http://www.w3.org/2000/svg">
<path fill-rule="evenodd" clip-rule="evenodd" d="M22.2117 3.63356C21.0125 2.47835 19.5856 1.56235 18.0137 0.938641C16.4419 0.314929 14.7564 -0.0040989 13.0548 3.97564e-05C5.91957 3.97564e-05 0.111037 5.55727 0.108153 12.3882C0.108153 14.5714 0.703714 16.7021 1.83571 18.5817L0 25L6.86266 23.2764C8.76095 24.2653 10.8877 24.7838 13.049 24.7847H13.0548C20.1885 24.7847 25.9971 19.2275 25.9999 12.3965C26.0049 10.7688 25.6726 9.15629 25.0224 7.65219C24.3721 6.14809 23.4168 4.78223 22.2117 3.63356ZM13.0548 22.694H13.0504C11.1232 22.6942 9.2314 22.198 7.57358 21.2575L7.18135 21.0339L3.10903 22.0565L4.19489 18.2574L3.93965 17.8682C2.86214 16.2266 2.29173 14.3268 2.29428 12.3882C2.29717 6.71095 7.12367 2.09211 13.0591 2.09211C14.4727 2.0891 15.8728 2.35442 17.1785 2.8727C18.4842 3.39099 19.6695 4.15195 20.6658 5.11154C21.6675 6.06655 22.4615 7.20208 23.0018 8.4525C23.5421 9.70291 23.8181 11.0434 23.8138 12.3965C23.8109 18.0738 18.9844 22.694 13.0548 22.694ZM18.957 14.9812C18.6326 14.8253 17.0434 14.0774 16.7464 13.9739C16.4508 13.8704 16.2359 13.8193 16.0196 14.1284C15.8033 14.4375 15.1832 15.1344 14.9943 15.3414C14.8054 15.5484 14.6165 15.5733 14.2935 15.4187C13.9705 15.2641 12.9279 14.9371 11.692 13.8828C10.7302 13.0617 10.0813 12.0488 9.89238 11.7383C9.70347 11.4278 9.87219 11.2608 10.0351 11.1062C10.1808 10.9682 10.3582 10.7447 10.5197 10.5639C10.6812 10.3831 10.7345 10.2548 10.8427 10.0478C10.9508 9.84077 10.8975 9.65999 10.8153 9.50543C10.7345 9.34949 10.0871 7.82598 9.81739 7.20637C9.55639 6.60607 9.28961 6.68611 9.09061 6.67783C8.88451 6.66976 8.67825 6.66608 8.47197 6.66679C8.30795 6.67079 8.14656 6.70717 7.99792 6.77367C7.84928 6.84016 7.7166 6.93532 7.60819 7.05319C7.31113 7.36368 6.47619 8.11164 6.47619 9.63515C6.47619 11.1587 7.63559 12.6311 7.7971 12.8381C7.95861 13.0451 10.0784 16.1708 13.323 17.5122C14.0959 17.8309 14.6987 18.0214 15.1674 18.1649C15.9417 18.4009 16.6469 18.3664 17.205 18.2877C17.8265 18.1994 19.1185 17.5398 19.3882 16.8166C19.6579 16.0935 19.6579 15.4739 19.5771 15.3442C19.4964 15.2145 19.2786 15.1358 18.957 14.9812Z" fill="white"/>
</svg>
